M48
; DRILL file {KiCad 9.0.7} date 2026-07-16T00:45:05-0400
; FORMAT={-:-/ absolute / metric / decimal}
; #@! TF.CreationDate,2026-07-16T00:45:05-04:00
; #@! TF.GenerationSoftware,Kicad,Pcbnew,9.0.7
; #@! TF.FileFunction,Plated,1,2,PTH
FMAT,2
METRIC
; #@! TA.AperFunction,Plated,PTH,ViaDrill
T1C0.300
; #@! TA.AperFunction,Plated,PTH,ComponentDrill
T2C0.600
; #@! TA.AperFunction,Plated,PTH,ComponentDrill
T3C0.650
; #@! TA.AperFunction,Plated,PTH,ComponentDrill
T4C0.700
; #@! TA.AperFunction,Plated,PTH,ComponentDrill
T5C0.800
; #@! TA.AperFunction,Plated,PTH,ComponentDrill
T6C0.900
; #@! TA.AperFunction,Plated,PTH,ComponentDrill
T7C1.100
; #@! TA.AperFunction,Plated,PTH,ComponentDrill
T8C1.200
; #@! TA.AperFunction,Plated,PTH,ComponentDrill
T9C1.300
%
G90
G05
T1
X111.852Y-118.4
X133.0Y-111.953
X140.0Y-80.1
T2
X115.41Y-78.55
X115.41Y-80.55
X121.927Y-78.55
X121.927Y-80.55
X128.443Y-78.55
X128.443Y-80.55
X134.96Y-78.55
X134.96Y-80.55
T3
X125.095Y-145.5
X126.365Y-145.5
X127.635Y-145.5
X128.905Y-145.5
T4
X115.5Y-55.69
X115.5Y-63.31
X115.5Y-67.0
X115.5Y-74.62
X119.5Y-55.69
X119.5Y-63.31
X119.5Y-67.0
X119.5Y-74.62
X135.5Y-56.69
X135.5Y-64.31
X142.0Y-56.853
X142.0Y-64.473
X142.0Y-70.353
X142.0Y-77.973
X142.0Y-84.353
X142.0Y-91.973
X142.0Y-97.853
X142.0Y-105.473
X142.0Y-111.353
X142.0Y-118.973
X142.0Y-125.353
X142.0Y-132.973
X146.375Y-65.566
X146.375Y-79.229
X146.375Y-92.892
X146.375Y-106.555
X146.375Y-120.217
X146.375Y-133.88
X153.995Y-65.566
X153.995Y-79.229
X153.995Y-92.892
X153.995Y-106.555
X153.995Y-120.217
X153.995Y-133.88
X159.5Y-66.785
X159.5Y-74.405
X159.5Y-83.974
X159.5Y-91.594
X159.5Y-101.163
X159.5Y-108.783
X159.5Y-118.352
X159.5Y-125.972
X159.5Y-135.541
X159.5Y-143.161
X159.5Y-152.73
X159.5Y-160.35
T5
X146.38Y-57.46
X146.38Y-60.0
X146.38Y-71.123
X146.38Y-73.663
X146.38Y-84.785
X146.38Y-87.325
X146.38Y-98.448
X146.38Y-100.988
X146.38Y-112.111
X146.38Y-114.651
X146.38Y-125.774
X146.38Y-128.314
X154.0Y-57.46
X154.0Y-60.0
X154.0Y-71.123
X154.0Y-73.663
X154.0Y-84.785
X154.0Y-87.325
X154.0Y-98.448
X154.0Y-100.988
X154.0Y-112.111
X154.0Y-114.651
X154.0Y-125.774
X154.0Y-128.314
T6
X113.64Y-94.94
X113.64Y-97.48
X113.64Y-100.02
X113.64Y-102.56
X113.64Y-105.1
X113.64Y-107.64
X113.64Y-110.18
X113.64Y-112.72
X113.64Y-115.26
X113.64Y-117.8
X113.64Y-120.34
X113.64Y-122.88
X113.64Y-125.42
X113.64Y-127.96
X113.64Y-130.5
X136.5Y-94.94
X136.5Y-97.48
X136.5Y-100.02
X136.5Y-102.56
X136.5Y-105.1
X136.5Y-107.64
X136.5Y-110.18
X136.5Y-112.72
X136.5Y-115.26
X136.5Y-117.8
X136.5Y-120.34
X136.5Y-122.88
X136.5Y-125.42
X136.5Y-127.96
X136.5Y-130.5
T7
X124.92Y-72.0
X127.46Y-72.0
X130.0Y-72.0
X145.75Y-141.25
X145.75Y-145.75
X145.75Y-149.8
X145.75Y-154.3
X145.75Y-158.35
X145.75Y-162.85
X152.25Y-141.25
X152.25Y-145.75
X152.25Y-149.8
X152.25Y-154.3
X152.25Y-158.35
X152.25Y-162.85
X168.45Y-59.46
X168.45Y-62.0
X168.45Y-64.54
X168.45Y-77.96
X168.45Y-80.5
X168.45Y-83.04
X168.45Y-96.46
X168.45Y-99.0
X168.45Y-101.54
X168.45Y-114.96
X168.45Y-117.5
X168.45Y-120.04
X168.45Y-133.46
X168.45Y-136.0
X168.45Y-138.54
X168.45Y-151.96
X168.45Y-154.5
X168.45Y-157.04
T8
X154.5Y-169.5
X157.04Y-169.5
X159.58Y-169.5
X162.12Y-169.5
T9
X124.96Y-60.05
X129.96Y-60.05
M30
