%TF.GenerationSoftware,KiCad,Pcbnew,9.0.7*%
%TF.CreationDate,2026-07-16T00:45:08-04:00*%
%TF.ProjectId,Three_Phase_Inverter,54687265-655f-4506-9861-73655f496e76,rev?*%
%TF.SameCoordinates,Original*%
%TF.FileFunction,Legend,Top*%
%TF.FilePolarity,Positive*%
%FSLAX46Y46*%
G04 Gerber Fmt 4.6, Leading zero omitted, Abs format (unit mm)*
G04 Created by KiCad (PCBNEW 9.0.7) date 2026-07-16 00:45:08*
%MOMM*%
%LPD*%
G01*
G04 APERTURE LIST*
%ADD10C,0.100000*%
%ADD11C,0.150000*%
%ADD12C,0.120000*%
G04 APERTURE END LIST*
D10*
X161355693Y-166560038D02*
X161260455Y-166512419D01*
X161260455Y-166512419D02*
X161117598Y-166512419D01*
X161117598Y-166512419D02*
X160974741Y-166560038D01*
X160974741Y-166560038D02*
X160879503Y-166655276D01*
X160879503Y-166655276D02*
X160831884Y-166750514D01*
X160831884Y-166750514D02*
X160784265Y-166940990D01*
X160784265Y-166940990D02*
X160784265Y-167083847D01*
X160784265Y-167083847D02*
X160831884Y-167274323D01*
X160831884Y-167274323D02*
X160879503Y-167369561D01*
X160879503Y-167369561D02*
X160974741Y-167464800D01*
X160974741Y-167464800D02*
X161117598Y-167512419D01*
X161117598Y-167512419D02*
X161212836Y-167512419D01*
X161212836Y-167512419D02*
X161355693Y-167464800D01*
X161355693Y-167464800D02*
X161403312Y-167417180D01*
X161403312Y-167417180D02*
X161403312Y-167083847D01*
X161403312Y-167083847D02*
X161212836Y-167083847D01*
X161831884Y-167512419D02*
X161831884Y-166512419D01*
X161831884Y-166512419D02*
X162403312Y-167512419D01*
X162403312Y-167512419D02*
X162403312Y-166512419D01*
X162879503Y-167512419D02*
X162879503Y-166512419D01*
X162879503Y-166512419D02*
X163117598Y-166512419D01*
X163117598Y-166512419D02*
X163260455Y-166560038D01*
X163260455Y-166560038D02*
X163355693Y-166655276D01*
X163355693Y-166655276D02*
X163403312Y-166750514D01*
X163403312Y-166750514D02*
X163450931Y-166940990D01*
X163450931Y-166940990D02*
X163450931Y-167083847D01*
X163450931Y-167083847D02*
X163403312Y-167274323D01*
X163403312Y-167274323D02*
X163355693Y-167369561D01*
X163355693Y-167369561D02*
X163260455Y-167464800D01*
X163260455Y-167464800D02*
X163117598Y-167512419D01*
X163117598Y-167512419D02*
X162879503Y-167512419D01*
X113494360Y-140372419D02*
X113684836Y-140372419D01*
X113684836Y-140372419D02*
X113780074Y-140420038D01*
X113780074Y-140420038D02*
X113875312Y-140515276D01*
X113875312Y-140515276D02*
X113922931Y-140705752D01*
X113922931Y-140705752D02*
X113922931Y-141039085D01*
X113922931Y-141039085D02*
X113875312Y-141229561D01*
X113875312Y-141229561D02*
X113780074Y-141324800D01*
X113780074Y-141324800D02*
X113684836Y-141372419D01*
X113684836Y-141372419D02*
X113494360Y-141372419D01*
X113494360Y-141372419D02*
X113399122Y-141324800D01*
X113399122Y-141324800D02*
X113303884Y-141229561D01*
X113303884Y-141229561D02*
X113256265Y-141039085D01*
X113256265Y-141039085D02*
X113256265Y-140705752D01*
X113256265Y-140705752D02*
X113303884Y-140515276D01*
X113303884Y-140515276D02*
X113399122Y-140420038D01*
X113399122Y-140420038D02*
X113494360Y-140372419D01*
X114827693Y-141372419D02*
X114351503Y-141372419D01*
X114351503Y-141372419D02*
X114351503Y-140372419D01*
X115161027Y-140848609D02*
X115494360Y-140848609D01*
X115637217Y-141372419D02*
X115161027Y-141372419D01*
X115161027Y-141372419D02*
X115161027Y-140372419D01*
X115161027Y-140372419D02*
X115637217Y-140372419D01*
X116065789Y-141372419D02*
X116065789Y-140372419D01*
X116065789Y-140372419D02*
X116303884Y-140372419D01*
X116303884Y-140372419D02*
X116446741Y-140420038D01*
X116446741Y-140420038D02*
X116541979Y-140515276D01*
X116541979Y-140515276D02*
X116589598Y-140610514D01*
X116589598Y-140610514D02*
X116637217Y-140800990D01*
X116637217Y-140800990D02*
X116637217Y-140943847D01*
X116637217Y-140943847D02*
X116589598Y-141134323D01*
X116589598Y-141134323D02*
X116541979Y-141229561D01*
X116541979Y-141229561D02*
X116446741Y-141324800D01*
X116446741Y-141324800D02*
X116303884Y-141372419D01*
X116303884Y-141372419D02*
X116065789Y-141372419D01*
X117827694Y-141372419D02*
X117827694Y-140372419D01*
X117827694Y-140372419D02*
X118065789Y-140372419D01*
X118065789Y-140372419D02*
X118208646Y-140420038D01*
X118208646Y-140420038D02*
X118303884Y-140515276D01*
X118303884Y-140515276D02*
X118351503Y-140610514D01*
X118351503Y-140610514D02*
X118399122Y-140800990D01*
X118399122Y-140800990D02*
X118399122Y-140943847D01*
X118399122Y-140943847D02*
X118351503Y-141134323D01*
X118351503Y-141134323D02*
X118303884Y-141229561D01*
X118303884Y-141229561D02*
X118208646Y-141324800D01*
X118208646Y-141324800D02*
X118065789Y-141372419D01*
X118065789Y-141372419D02*
X117827694Y-141372419D01*
X118827694Y-141372419D02*
X118827694Y-140705752D01*
X118827694Y-140372419D02*
X118780075Y-140420038D01*
X118780075Y-140420038D02*
X118827694Y-140467657D01*
X118827694Y-140467657D02*
X118875313Y-140420038D01*
X118875313Y-140420038D02*
X118827694Y-140372419D01*
X118827694Y-140372419D02*
X118827694Y-140467657D01*
X119256265Y-141324800D02*
X119351503Y-141372419D01*
X119351503Y-141372419D02*
X119541979Y-141372419D01*
X119541979Y-141372419D02*
X119637217Y-141324800D01*
X119637217Y-141324800D02*
X119684836Y-141229561D01*
X119684836Y-141229561D02*
X119684836Y-141181942D01*
X119684836Y-141181942D02*
X119637217Y-141086704D01*
X119637217Y-141086704D02*
X119541979Y-141039085D01*
X119541979Y-141039085D02*
X119399122Y-141039085D01*
X119399122Y-141039085D02*
X119303884Y-140991466D01*
X119303884Y-140991466D02*
X119256265Y-140896228D01*
X119256265Y-140896228D02*
X119256265Y-140848609D01*
X119256265Y-140848609D02*
X119303884Y-140753371D01*
X119303884Y-140753371D02*
X119399122Y-140705752D01*
X119399122Y-140705752D02*
X119541979Y-140705752D01*
X119541979Y-140705752D02*
X119637217Y-140753371D01*
X120113408Y-140705752D02*
X120113408Y-141705752D01*
X120113408Y-140753371D02*
X120208646Y-140705752D01*
X120208646Y-140705752D02*
X120399122Y-140705752D01*
X120399122Y-140705752D02*
X120494360Y-140753371D01*
X120494360Y-140753371D02*
X120541979Y-140800990D01*
X120541979Y-140800990D02*
X120589598Y-140896228D01*
X120589598Y-140896228D02*
X120589598Y-141181942D01*
X120589598Y-141181942D02*
X120541979Y-141277180D01*
X120541979Y-141277180D02*
X120494360Y-141324800D01*
X120494360Y-141324800D02*
X120399122Y-141372419D01*
X120399122Y-141372419D02*
X120208646Y-141372419D01*
X120208646Y-141372419D02*
X120113408Y-141324800D01*
X121161027Y-141372419D02*
X121065789Y-141324800D01*
X121065789Y-141324800D02*
X121018170Y-141229561D01*
X121018170Y-141229561D02*
X121018170Y-140372419D01*
X121970551Y-141372419D02*
X121970551Y-140848609D01*
X121970551Y-140848609D02*
X121922932Y-140753371D01*
X121922932Y-140753371D02*
X121827694Y-140705752D01*
X121827694Y-140705752D02*
X121637218Y-140705752D01*
X121637218Y-140705752D02*
X121541980Y-140753371D01*
X121970551Y-141324800D02*
X121875313Y-141372419D01*
X121875313Y-141372419D02*
X121637218Y-141372419D01*
X121637218Y-141372419D02*
X121541980Y-141324800D01*
X121541980Y-141324800D02*
X121494361Y-141229561D01*
X121494361Y-141229561D02*
X121494361Y-141134323D01*
X121494361Y-141134323D02*
X121541980Y-141039085D01*
X121541980Y-141039085D02*
X121637218Y-140991466D01*
X121637218Y-140991466D02*
X121875313Y-140991466D01*
X121875313Y-140991466D02*
X121970551Y-140943847D01*
X122351504Y-140705752D02*
X122589599Y-141372419D01*
X122827694Y-140705752D02*
X122589599Y-141372419D01*
X122589599Y-141372419D02*
X122494361Y-141610514D01*
X122494361Y-141610514D02*
X122446742Y-141658133D01*
X122446742Y-141658133D02*
X122351504Y-141705752D01*
D11*
X129319580Y-86407428D02*
X129367200Y-86455047D01*
X129367200Y-86455047D02*
X129414819Y-86597904D01*
X129414819Y-86597904D02*
X129414819Y-86693142D01*
X129414819Y-86693142D02*
X129367200Y-86835999D01*
X129367200Y-86835999D02*
X129271961Y-86931237D01*
X129271961Y-86931237D02*
X129176723Y-86978856D01*
X129176723Y-86978856D02*
X128986247Y-87026475D01*
X128986247Y-87026475D02*
X128843390Y-87026475D01*
X128843390Y-87026475D02*
X128652914Y-86978856D01*
X128652914Y-86978856D02*
X128557676Y-86931237D01*
X128557676Y-86931237D02*
X128462438Y-86835999D01*
X128462438Y-86835999D02*
X128414819Y-86693142D01*
X128414819Y-86693142D02*
X128414819Y-86597904D01*
X128414819Y-86597904D02*
X128462438Y-86455047D01*
X128462438Y-86455047D02*
X128510057Y-86407428D01*
X129414819Y-85455047D02*
X129414819Y-86026475D01*
X129414819Y-85740761D02*
X128414819Y-85740761D01*
X128414819Y-85740761D02*
X128557676Y-85835999D01*
X128557676Y-85835999D02*
X128652914Y-85931237D01*
X128652914Y-85931237D02*
X128700533Y-86026475D01*
X128414819Y-84835999D02*
X128414819Y-84740761D01*
X128414819Y-84740761D02*
X128462438Y-84645523D01*
X128462438Y-84645523D02*
X128510057Y-84597904D01*
X128510057Y-84597904D02*
X128605295Y-84550285D01*
X128605295Y-84550285D02*
X128795771Y-84502666D01*
X128795771Y-84502666D02*
X129033866Y-84502666D01*
X129033866Y-84502666D02*
X129224342Y-84550285D01*
X129224342Y-84550285D02*
X129319580Y-84597904D01*
X129319580Y-84597904D02*
X129367200Y-84645523D01*
X129367200Y-84645523D02*
X129414819Y-84740761D01*
X129414819Y-84740761D02*
X129414819Y-84835999D01*
X129414819Y-84835999D02*
X129367200Y-84931237D01*
X129367200Y-84931237D02*
X129319580Y-84978856D01*
X129319580Y-84978856D02*
X129224342Y-85026475D01*
X129224342Y-85026475D02*
X129033866Y-85074094D01*
X129033866Y-85074094D02*
X128795771Y-85074094D01*
X128795771Y-85074094D02*
X128605295Y-85026475D01*
X128605295Y-85026475D02*
X128510057Y-84978856D01*
X128510057Y-84978856D02*
X128462438Y-84931237D01*
X128462438Y-84931237D02*
X128414819Y-84835999D01*
X128414819Y-83883618D02*
X128414819Y-83788380D01*
X128414819Y-83788380D02*
X128462438Y-83693142D01*
X128462438Y-83693142D02*
X128510057Y-83645523D01*
X128510057Y-83645523D02*
X128605295Y-83597904D01*
X128605295Y-83597904D02*
X128795771Y-83550285D01*
X128795771Y-83550285D02*
X129033866Y-83550285D01*
X129033866Y-83550285D02*
X129224342Y-83597904D01*
X129224342Y-83597904D02*
X129319580Y-83645523D01*
X129319580Y-83645523D02*
X129367200Y-83693142D01*
X129367200Y-83693142D02*
X129414819Y-83788380D01*
X129414819Y-83788380D02*
X129414819Y-83883618D01*
X129414819Y-83883618D02*
X129367200Y-83978856D01*
X129367200Y-83978856D02*
X129319580Y-84026475D01*
X129319580Y-84026475D02*
X129224342Y-84074094D01*
X129224342Y-84074094D02*
X129033866Y-84121713D01*
X129033866Y-84121713D02*
X128795771Y-84121713D01*
X128795771Y-84121713D02*
X128605295Y-84074094D01*
X128605295Y-84074094D02*
X128510057Y-84026475D01*
X128510057Y-84026475D02*
X128462438Y-83978856D01*
X128462438Y-83978856D02*
X128414819Y-83883618D01*
X128748152Y-82693142D02*
X129414819Y-82693142D01*
X128748152Y-83121713D02*
X129271961Y-83121713D01*
X129271961Y-83121713D02*
X129367200Y-83074094D01*
X129367200Y-83074094D02*
X129414819Y-82978856D01*
X129414819Y-82978856D02*
X129414819Y-82835999D01*
X129414819Y-82835999D02*
X129367200Y-82740761D01*
X129367200Y-82740761D02*
X129319580Y-82693142D01*
X140534819Y-74734155D02*
X140058628Y-75067488D01*
X140534819Y-75305583D02*
X139534819Y-75305583D01*
X139534819Y-75305583D02*
X139534819Y-74924631D01*
X139534819Y-74924631D02*
X139582438Y-74829393D01*
X139582438Y-74829393D02*
X139630057Y-74781774D01*
X139630057Y-74781774D02*
X139725295Y-74734155D01*
X139725295Y-74734155D02*
X139868152Y-74734155D01*
X139868152Y-74734155D02*
X139963390Y-74781774D01*
X139963390Y-74781774D02*
X140011009Y-74829393D01*
X140011009Y-74829393D02*
X140058628Y-74924631D01*
X140058628Y-74924631D02*
X140058628Y-75305583D01*
X140534819Y-73781774D02*
X140534819Y-74353202D01*
X140534819Y-74067488D02*
X139534819Y-74067488D01*
X139534819Y-74067488D02*
X139677676Y-74162726D01*
X139677676Y-74162726D02*
X139772914Y-74257964D01*
X139772914Y-74257964D02*
X139820533Y-74353202D01*
X140534819Y-73353202D02*
X139534819Y-73353202D01*
X140153866Y-73257964D02*
X140534819Y-72972250D01*
X139868152Y-72972250D02*
X140249104Y-73353202D01*
X149065952Y-77763910D02*
X148732619Y-77287719D01*
X148494524Y-77763910D02*
X148494524Y-76763910D01*
X148494524Y-76763910D02*
X148875476Y-76763910D01*
X148875476Y-76763910D02*
X148970714Y-76811529D01*
X148970714Y-76811529D02*
X149018333Y-76859148D01*
X149018333Y-76859148D02*
X149065952Y-76954386D01*
X149065952Y-76954386D02*
X149065952Y-77097243D01*
X149065952Y-77097243D02*
X149018333Y-77192481D01*
X149018333Y-77192481D02*
X148970714Y-77240100D01*
X148970714Y-77240100D02*
X148875476Y-77287719D01*
X148875476Y-77287719D02*
X148494524Y-77287719D01*
X149399286Y-76763910D02*
X150018333Y-76763910D01*
X150018333Y-76763910D02*
X149685000Y-77144862D01*
X149685000Y-77144862D02*
X149827857Y-77144862D01*
X149827857Y-77144862D02*
X149923095Y-77192481D01*
X149923095Y-77192481D02*
X149970714Y-77240100D01*
X149970714Y-77240100D02*
X150018333Y-77335338D01*
X150018333Y-77335338D02*
X150018333Y-77573433D01*
X150018333Y-77573433D02*
X149970714Y-77668671D01*
X149970714Y-77668671D02*
X149923095Y-77716291D01*
X149923095Y-77716291D02*
X149827857Y-77763910D01*
X149827857Y-77763910D02*
X149542143Y-77763910D01*
X149542143Y-77763910D02*
X149446905Y-77716291D01*
X149446905Y-77716291D02*
X149399286Y-77668671D01*
X150637381Y-76763910D02*
X150732619Y-76763910D01*
X150732619Y-76763910D02*
X150827857Y-76811529D01*
X150827857Y-76811529D02*
X150875476Y-76859148D01*
X150875476Y-76859148D02*
X150923095Y-76954386D01*
X150923095Y-76954386D02*
X150970714Y-77144862D01*
X150970714Y-77144862D02*
X150970714Y-77382957D01*
X150970714Y-77382957D02*
X150923095Y-77573433D01*
X150923095Y-77573433D02*
X150875476Y-77668671D01*
X150875476Y-77668671D02*
X150827857Y-77716291D01*
X150827857Y-77716291D02*
X150732619Y-77763910D01*
X150732619Y-77763910D02*
X150637381Y-77763910D01*
X150637381Y-77763910D02*
X150542143Y-77716291D01*
X150542143Y-77716291D02*
X150494524Y-77668671D01*
X150494524Y-77668671D02*
X150446905Y-77573433D01*
X150446905Y-77573433D02*
X150399286Y-77382957D01*
X150399286Y-77382957D02*
X150399286Y-77144862D01*
X150399286Y-77144862D02*
X150446905Y-76954386D01*
X150446905Y-76954386D02*
X150494524Y-76859148D01*
X150494524Y-76859148D02*
X150542143Y-76811529D01*
X150542143Y-76811529D02*
X150637381Y-76763910D01*
X151589762Y-76763910D02*
X151685000Y-76763910D01*
X151685000Y-76763910D02*
X151780238Y-76811529D01*
X151780238Y-76811529D02*
X151827857Y-76859148D01*
X151827857Y-76859148D02*
X151875476Y-76954386D01*
X151875476Y-76954386D02*
X151923095Y-77144862D01*
X151923095Y-77144862D02*
X151923095Y-77382957D01*
X151923095Y-77382957D02*
X151875476Y-77573433D01*
X151875476Y-77573433D02*
X151827857Y-77668671D01*
X151827857Y-77668671D02*
X151780238Y-77716291D01*
X151780238Y-77716291D02*
X151685000Y-77763910D01*
X151685000Y-77763910D02*
X151589762Y-77763910D01*
X151589762Y-77763910D02*
X151494524Y-77716291D01*
X151494524Y-77716291D02*
X151446905Y-77668671D01*
X151446905Y-77668671D02*
X151399286Y-77573433D01*
X151399286Y-77573433D02*
X151351667Y-77382957D01*
X151351667Y-77382957D02*
X151351667Y-77144862D01*
X151351667Y-77144862D02*
X151399286Y-76954386D01*
X151399286Y-76954386D02*
X151446905Y-76859148D01*
X151446905Y-76859148D02*
X151494524Y-76811529D01*
X151494524Y-76811529D02*
X151589762Y-76763910D01*
X114034819Y-71857619D02*
X113558628Y-72190952D01*
X114034819Y-72429047D02*
X113034819Y-72429047D01*
X113034819Y-72429047D02*
X113034819Y-72048095D01*
X113034819Y-72048095D02*
X113082438Y-71952857D01*
X113082438Y-71952857D02*
X113130057Y-71905238D01*
X113130057Y-71905238D02*
X113225295Y-71857619D01*
X113225295Y-71857619D02*
X113368152Y-71857619D01*
X113368152Y-71857619D02*
X113463390Y-71905238D01*
X113463390Y-71905238D02*
X113511009Y-71952857D01*
X113511009Y-71952857D02*
X113558628Y-72048095D01*
X113558628Y-72048095D02*
X113558628Y-72429047D01*
X114034819Y-70905238D02*
X114034819Y-71476666D01*
X114034819Y-71190952D02*
X113034819Y-71190952D01*
X113034819Y-71190952D02*
X113177676Y-71286190D01*
X113177676Y-71286190D02*
X113272914Y-71381428D01*
X113272914Y-71381428D02*
X113320533Y-71476666D01*
X113034819Y-70286190D02*
X113034819Y-70190952D01*
X113034819Y-70190952D02*
X113082438Y-70095714D01*
X113082438Y-70095714D02*
X113130057Y-70048095D01*
X113130057Y-70048095D02*
X113225295Y-70000476D01*
X113225295Y-70000476D02*
X113415771Y-69952857D01*
X113415771Y-69952857D02*
X113653866Y-69952857D01*
X113653866Y-69952857D02*
X113844342Y-70000476D01*
X113844342Y-70000476D02*
X113939580Y-70048095D01*
X113939580Y-70048095D02*
X113987200Y-70095714D01*
X113987200Y-70095714D02*
X114034819Y-70190952D01*
X114034819Y-70190952D02*
X114034819Y-70286190D01*
X114034819Y-70286190D02*
X113987200Y-70381428D01*
X113987200Y-70381428D02*
X113939580Y-70429047D01*
X113939580Y-70429047D02*
X113844342Y-70476666D01*
X113844342Y-70476666D02*
X113653866Y-70524285D01*
X113653866Y-70524285D02*
X113415771Y-70524285D01*
X113415771Y-70524285D02*
X113225295Y-70476666D01*
X113225295Y-70476666D02*
X113130057Y-70429047D01*
X113130057Y-70429047D02*
X113082438Y-70381428D01*
X113082438Y-70381428D02*
X113034819Y-70286190D01*
X114034819Y-69524285D02*
X113034819Y-69524285D01*
X113653866Y-69429047D02*
X114034819Y-69143333D01*
X113368152Y-69143333D02*
X113749104Y-69524285D01*
X140534819Y-88734155D02*
X140058628Y-89067488D01*
X140534819Y-89305583D02*
X139534819Y-89305583D01*
X139534819Y-89305583D02*
X139534819Y-88924631D01*
X139534819Y-88924631D02*
X139582438Y-88829393D01*
X139582438Y-88829393D02*
X139630057Y-88781774D01*
X139630057Y-88781774D02*
X139725295Y-88734155D01*
X139725295Y-88734155D02*
X139868152Y-88734155D01*
X139868152Y-88734155D02*
X139963390Y-88781774D01*
X139963390Y-88781774D02*
X140011009Y-88829393D01*
X140011009Y-88829393D02*
X140058628Y-88924631D01*
X140058628Y-88924631D02*
X140058628Y-89305583D01*
X140534819Y-87781774D02*
X140534819Y-88353202D01*
X140534819Y-88067488D02*
X139534819Y-88067488D01*
X139534819Y-88067488D02*
X139677676Y-88162726D01*
X139677676Y-88162726D02*
X139772914Y-88257964D01*
X139772914Y-88257964D02*
X139820533Y-88353202D01*
X140534819Y-87353202D02*
X139534819Y-87353202D01*
X140153866Y-87257964D02*
X140534819Y-86972250D01*
X139868152Y-86972250D02*
X140249104Y-87353202D01*
X158034819Y-71165973D02*
X157558628Y-71499306D01*
X158034819Y-71737401D02*
X157034819Y-71737401D01*
X157034819Y-71737401D02*
X157034819Y-71356449D01*
X157034819Y-71356449D02*
X157082438Y-71261211D01*
X157082438Y-71261211D02*
X157130057Y-71213592D01*
X157130057Y-71213592D02*
X157225295Y-71165973D01*
X157225295Y-71165973D02*
X157368152Y-71165973D01*
X157368152Y-71165973D02*
X157463390Y-71213592D01*
X157463390Y-71213592D02*
X157511009Y-71261211D01*
X157511009Y-71261211D02*
X157558628Y-71356449D01*
X157558628Y-71356449D02*
X157558628Y-71737401D01*
X158034819Y-70213592D02*
X158034819Y-70785020D01*
X158034819Y-70499306D02*
X157034819Y-70499306D01*
X157034819Y-70499306D02*
X157177676Y-70594544D01*
X157177676Y-70594544D02*
X157272914Y-70689782D01*
X157272914Y-70689782D02*
X157320533Y-70785020D01*
X158034819Y-69785020D02*
X157034819Y-69785020D01*
X157653866Y-69689782D02*
X158034819Y-69404068D01*
X157368152Y-69404068D02*
X157749104Y-69785020D01*
X168550057Y-148095238D02*
X168502438Y-148190476D01*
X168502438Y-148190476D02*
X168407200Y-148285714D01*
X168407200Y-148285714D02*
X168264342Y-148428571D01*
X168264342Y-148428571D02*
X168216723Y-148523809D01*
X168216723Y-148523809D02*
X168216723Y-148619047D01*
X168454819Y-148571428D02*
X168407200Y-148666666D01*
X168407200Y-148666666D02*
X168311961Y-148761904D01*
X168311961Y-148761904D02*
X168121485Y-148809523D01*
X168121485Y-148809523D02*
X167788152Y-148809523D01*
X167788152Y-148809523D02*
X167597676Y-148761904D01*
X167597676Y-148761904D02*
X167502438Y-148666666D01*
X167502438Y-148666666D02*
X167454819Y-148571428D01*
X167454819Y-148571428D02*
X167454819Y-148380952D01*
X167454819Y-148380952D02*
X167502438Y-148285714D01*
X167502438Y-148285714D02*
X167597676Y-148190476D01*
X167597676Y-148190476D02*
X167788152Y-148142857D01*
X167788152Y-148142857D02*
X168121485Y-148142857D01*
X168121485Y-148142857D02*
X168311961Y-148190476D01*
X168311961Y-148190476D02*
X168407200Y-148285714D01*
X168407200Y-148285714D02*
X168454819Y-148380952D01*
X168454819Y-148380952D02*
X168454819Y-148571428D01*
X167454819Y-147285714D02*
X167454819Y-147476190D01*
X167454819Y-147476190D02*
X167502438Y-147571428D01*
X167502438Y-147571428D02*
X167550057Y-147619047D01*
X167550057Y-147619047D02*
X167692914Y-147714285D01*
X167692914Y-147714285D02*
X167883390Y-147761904D01*
X167883390Y-147761904D02*
X168264342Y-147761904D01*
X168264342Y-147761904D02*
X168359580Y-147714285D01*
X168359580Y-147714285D02*
X168407200Y-147666666D01*
X168407200Y-147666666D02*
X168454819Y-147571428D01*
X168454819Y-147571428D02*
X168454819Y-147380952D01*
X168454819Y-147380952D02*
X168407200Y-147285714D01*
X168407200Y-147285714D02*
X168359580Y-147238095D01*
X168359580Y-147238095D02*
X168264342Y-147190476D01*
X168264342Y-147190476D02*
X168026247Y-147190476D01*
X168026247Y-147190476D02*
X167931009Y-147238095D01*
X167931009Y-147238095D02*
X167883390Y-147285714D01*
X167883390Y-147285714D02*
X167835771Y-147380952D01*
X167835771Y-147380952D02*
X167835771Y-147571428D01*
X167835771Y-147571428D02*
X167883390Y-147666666D01*
X167883390Y-147666666D02*
X167931009Y-147714285D01*
X167931009Y-147714285D02*
X168026247Y-147761904D01*
X158034819Y-122733246D02*
X157558628Y-123066579D01*
X158034819Y-123304674D02*
X157034819Y-123304674D01*
X157034819Y-123304674D02*
X157034819Y-122923722D01*
X157034819Y-122923722D02*
X157082438Y-122828484D01*
X157082438Y-122828484D02*
X157130057Y-122780865D01*
X157130057Y-122780865D02*
X157225295Y-122733246D01*
X157225295Y-122733246D02*
X157368152Y-122733246D01*
X157368152Y-122733246D02*
X157463390Y-122780865D01*
X157463390Y-122780865D02*
X157511009Y-122828484D01*
X157511009Y-122828484D02*
X157558628Y-122923722D01*
X157558628Y-122923722D02*
X157558628Y-123304674D01*
X158034819Y-121780865D02*
X158034819Y-122352293D01*
X158034819Y-122066579D02*
X157034819Y-122066579D01*
X157034819Y-122066579D02*
X157177676Y-122161817D01*
X157177676Y-122161817D02*
X157272914Y-122257055D01*
X157272914Y-122257055D02*
X157320533Y-122352293D01*
X158034819Y-121352293D02*
X157034819Y-121352293D01*
X157653866Y-121257055D02*
X158034819Y-120971341D01*
X157368152Y-120971341D02*
X157749104Y-121352293D01*
X122279580Y-86407428D02*
X122327200Y-86455047D01*
X122327200Y-86455047D02*
X122374819Y-86597904D01*
X122374819Y-86597904D02*
X122374819Y-86693142D01*
X122374819Y-86693142D02*
X122327200Y-86835999D01*
X122327200Y-86835999D02*
X122231961Y-86931237D01*
X122231961Y-86931237D02*
X122136723Y-86978856D01*
X122136723Y-86978856D02*
X121946247Y-87026475D01*
X121946247Y-87026475D02*
X121803390Y-87026475D01*
X121803390Y-87026475D02*
X121612914Y-86978856D01*
X121612914Y-86978856D02*
X121517676Y-86931237D01*
X121517676Y-86931237D02*
X121422438Y-86835999D01*
X121422438Y-86835999D02*
X121374819Y-86693142D01*
X121374819Y-86693142D02*
X121374819Y-86597904D01*
X121374819Y-86597904D02*
X121422438Y-86455047D01*
X121422438Y-86455047D02*
X121470057Y-86407428D01*
X122374819Y-85455047D02*
X122374819Y-86026475D01*
X122374819Y-85740761D02*
X121374819Y-85740761D01*
X121374819Y-85740761D02*
X121517676Y-85835999D01*
X121517676Y-85835999D02*
X121612914Y-85931237D01*
X121612914Y-85931237D02*
X121660533Y-86026475D01*
X121374819Y-84835999D02*
X121374819Y-84740761D01*
X121374819Y-84740761D02*
X121422438Y-84645523D01*
X121422438Y-84645523D02*
X121470057Y-84597904D01*
X121470057Y-84597904D02*
X121565295Y-84550285D01*
X121565295Y-84550285D02*
X121755771Y-84502666D01*
X121755771Y-84502666D02*
X121993866Y-84502666D01*
X121993866Y-84502666D02*
X122184342Y-84550285D01*
X122184342Y-84550285D02*
X122279580Y-84597904D01*
X122279580Y-84597904D02*
X122327200Y-84645523D01*
X122327200Y-84645523D02*
X122374819Y-84740761D01*
X122374819Y-84740761D02*
X122374819Y-84835999D01*
X122374819Y-84835999D02*
X122327200Y-84931237D01*
X122327200Y-84931237D02*
X122279580Y-84978856D01*
X122279580Y-84978856D02*
X122184342Y-85026475D01*
X122184342Y-85026475D02*
X121993866Y-85074094D01*
X121993866Y-85074094D02*
X121755771Y-85074094D01*
X121755771Y-85074094D02*
X121565295Y-85026475D01*
X121565295Y-85026475D02*
X121470057Y-84978856D01*
X121470057Y-84978856D02*
X121422438Y-84931237D01*
X121422438Y-84931237D02*
X121374819Y-84835999D01*
X121374819Y-83883618D02*
X121374819Y-83788380D01*
X121374819Y-83788380D02*
X121422438Y-83693142D01*
X121422438Y-83693142D02*
X121470057Y-83645523D01*
X121470057Y-83645523D02*
X121565295Y-83597904D01*
X121565295Y-83597904D02*
X121755771Y-83550285D01*
X121755771Y-83550285D02*
X121993866Y-83550285D01*
X121993866Y-83550285D02*
X122184342Y-83597904D01*
X122184342Y-83597904D02*
X122279580Y-83645523D01*
X122279580Y-83645523D02*
X122327200Y-83693142D01*
X122327200Y-83693142D02*
X122374819Y-83788380D01*
X122374819Y-83788380D02*
X122374819Y-83883618D01*
X122374819Y-83883618D02*
X122327200Y-83978856D01*
X122327200Y-83978856D02*
X122279580Y-84026475D01*
X122279580Y-84026475D02*
X122184342Y-84074094D01*
X122184342Y-84074094D02*
X121993866Y-84121713D01*
X121993866Y-84121713D02*
X121755771Y-84121713D01*
X121755771Y-84121713D02*
X121565295Y-84074094D01*
X121565295Y-84074094D02*
X121470057Y-84026475D01*
X121470057Y-84026475D02*
X121422438Y-83978856D01*
X121422438Y-83978856D02*
X121374819Y-83883618D01*
X121708152Y-83121713D02*
X122374819Y-83121713D01*
X121803390Y-83121713D02*
X121755771Y-83074094D01*
X121755771Y-83074094D02*
X121708152Y-82978856D01*
X121708152Y-82978856D02*
X121708152Y-82835999D01*
X121708152Y-82835999D02*
X121755771Y-82740761D01*
X121755771Y-82740761D02*
X121851009Y-82693142D01*
X121851009Y-82693142D02*
X122374819Y-82693142D01*
X140534819Y-61234155D02*
X140058628Y-61567488D01*
X140534819Y-61805583D02*
X139534819Y-61805583D01*
X139534819Y-61805583D02*
X139534819Y-61424631D01*
X139534819Y-61424631D02*
X139582438Y-61329393D01*
X139582438Y-61329393D02*
X139630057Y-61281774D01*
X139630057Y-61281774D02*
X139725295Y-61234155D01*
X139725295Y-61234155D02*
X139868152Y-61234155D01*
X139868152Y-61234155D02*
X139963390Y-61281774D01*
X139963390Y-61281774D02*
X140011009Y-61329393D01*
X140011009Y-61329393D02*
X140058628Y-61424631D01*
X140058628Y-61424631D02*
X140058628Y-61805583D01*
X140534819Y-60281774D02*
X140534819Y-60853202D01*
X140534819Y-60567488D02*
X139534819Y-60567488D01*
X139534819Y-60567488D02*
X139677676Y-60662726D01*
X139677676Y-60662726D02*
X139772914Y-60757964D01*
X139772914Y-60757964D02*
X139820533Y-60853202D01*
X140534819Y-59853202D02*
X139534819Y-59853202D01*
X140153866Y-59757964D02*
X140534819Y-59472250D01*
X139868152Y-59472250D02*
X140249104Y-59853202D01*
X158034819Y-157111428D02*
X157558628Y-157444761D01*
X158034819Y-157682856D02*
X157034819Y-157682856D01*
X157034819Y-157682856D02*
X157034819Y-157301904D01*
X157034819Y-157301904D02*
X157082438Y-157206666D01*
X157082438Y-157206666D02*
X157130057Y-157159047D01*
X157130057Y-157159047D02*
X157225295Y-157111428D01*
X157225295Y-157111428D02*
X157368152Y-157111428D01*
X157368152Y-157111428D02*
X157463390Y-157159047D01*
X157463390Y-157159047D02*
X157511009Y-157206666D01*
X157511009Y-157206666D02*
X157558628Y-157301904D01*
X157558628Y-157301904D02*
X157558628Y-157682856D01*
X158034819Y-156159047D02*
X158034819Y-156730475D01*
X158034819Y-156444761D02*
X157034819Y-156444761D01*
X157034819Y-156444761D02*
X157177676Y-156539999D01*
X157177676Y-156539999D02*
X157272914Y-156635237D01*
X157272914Y-156635237D02*
X157320533Y-156730475D01*
X158034819Y-155730475D02*
X157034819Y-155730475D01*
X157653866Y-155635237D02*
X158034819Y-155349523D01*
X157368152Y-155349523D02*
X157749104Y-155730475D01*
X146166666Y-164781009D02*
X145833333Y-164781009D01*
X145833333Y-165304819D02*
X145833333Y-164304819D01*
X145833333Y-164304819D02*
X146309523Y-164304819D01*
X146833333Y-165304819D02*
X146738095Y-165257200D01*
X146738095Y-165257200D02*
X146690476Y-165209580D01*
X146690476Y-165209580D02*
X146642857Y-165114342D01*
X146642857Y-165114342D02*
X146642857Y-164828628D01*
X146642857Y-164828628D02*
X146690476Y-164733390D01*
X146690476Y-164733390D02*
X146738095Y-164685771D01*
X146738095Y-164685771D02*
X146833333Y-164638152D01*
X146833333Y-164638152D02*
X146976190Y-164638152D01*
X146976190Y-164638152D02*
X147071428Y-164685771D01*
X147071428Y-164685771D02*
X147119047Y-164733390D01*
X147119047Y-164733390D02*
X147166666Y-164828628D01*
X147166666Y-164828628D02*
X147166666Y-165114342D01*
X147166666Y-165114342D02*
X147119047Y-165209580D01*
X147119047Y-165209580D02*
X147071428Y-165257200D01*
X147071428Y-165257200D02*
X146976190Y-165304819D01*
X146976190Y-165304819D02*
X146833333Y-165304819D01*
X147595238Y-165304819D02*
X147595238Y-164638152D01*
X147595238Y-164828628D02*
X147642857Y-164733390D01*
X147642857Y-164733390D02*
X147690476Y-164685771D01*
X147690476Y-164685771D02*
X147785714Y-164638152D01*
X147785714Y-164638152D02*
X147880952Y-164638152D01*
X148119048Y-164638152D02*
X148309524Y-165304819D01*
X148309524Y-165304819D02*
X148500000Y-164828628D01*
X148500000Y-164828628D02*
X148690476Y-165304819D01*
X148690476Y-165304819D02*
X148880952Y-164638152D01*
X149690476Y-165304819D02*
X149690476Y-164781009D01*
X149690476Y-164781009D02*
X149642857Y-164685771D01*
X149642857Y-164685771D02*
X149547619Y-164638152D01*
X149547619Y-164638152D02*
X149357143Y-164638152D01*
X149357143Y-164638152D02*
X149261905Y-164685771D01*
X149690476Y-165257200D02*
X149595238Y-165304819D01*
X149595238Y-165304819D02*
X149357143Y-165304819D01*
X149357143Y-165304819D02*
X149261905Y-165257200D01*
X149261905Y-165257200D02*
X149214286Y-165161961D01*
X149214286Y-165161961D02*
X149214286Y-165066723D01*
X149214286Y-165066723D02*
X149261905Y-164971485D01*
X149261905Y-164971485D02*
X149357143Y-164923866D01*
X149357143Y-164923866D02*
X149595238Y-164923866D01*
X149595238Y-164923866D02*
X149690476Y-164876247D01*
X150166667Y-165304819D02*
X150166667Y-164638152D01*
X150166667Y-164828628D02*
X150214286Y-164733390D01*
X150214286Y-164733390D02*
X150261905Y-164685771D01*
X150261905Y-164685771D02*
X150357143Y-164638152D01*
X150357143Y-164638152D02*
X150452381Y-164638152D01*
X151214286Y-165304819D02*
X151214286Y-164304819D01*
X151214286Y-165257200D02*
X151119048Y-165304819D01*
X151119048Y-165304819D02*
X150928572Y-165304819D01*
X150928572Y-165304819D02*
X150833334Y-165257200D01*
X150833334Y-165257200D02*
X150785715Y-165209580D01*
X150785715Y-165209580D02*
X150738096Y-165114342D01*
X150738096Y-165114342D02*
X150738096Y-164828628D01*
X150738096Y-164828628D02*
X150785715Y-164733390D01*
X150785715Y-164733390D02*
X150833334Y-164685771D01*
X150833334Y-164685771D02*
X150928572Y-164638152D01*
X150928572Y-164638152D02*
X151119048Y-164638152D01*
X151119048Y-164638152D02*
X151214286Y-164685771D01*
X152214286Y-165304819D02*
X151642858Y-165304819D01*
X151928572Y-165304819D02*
X151928572Y-164304819D01*
X151928572Y-164304819D02*
X151833334Y-164447676D01*
X151833334Y-164447676D02*
X151738096Y-164542914D01*
X151738096Y-164542914D02*
X151642858Y-164590533D01*
X164804819Y-64857142D02*
X163804819Y-64857142D01*
X164804819Y-63809524D02*
X164328628Y-64142857D01*
X164804819Y-64380952D02*
X163804819Y-64380952D01*
X163804819Y-64380952D02*
X163804819Y-64000000D01*
X163804819Y-64000000D02*
X163852438Y-63904762D01*
X163852438Y-63904762D02*
X163900057Y-63857143D01*
X163900057Y-63857143D02*
X163995295Y-63809524D01*
X163995295Y-63809524D02*
X164138152Y-63809524D01*
X164138152Y-63809524D02*
X164233390Y-63857143D01*
X164233390Y-63857143D02*
X164281009Y-63904762D01*
X164281009Y-63904762D02*
X164328628Y-64000000D01*
X164328628Y-64000000D02*
X164328628Y-64380952D01*
X164804819Y-62904762D02*
X164804819Y-63380952D01*
X164804819Y-63380952D02*
X163804819Y-63380952D01*
X163804819Y-62666666D02*
X163804819Y-62000000D01*
X163804819Y-62000000D02*
X164804819Y-62666666D01*
X164804819Y-62666666D02*
X164804819Y-62000000D01*
X164138152Y-61190476D02*
X164804819Y-61190476D01*
X163757200Y-61428571D02*
X164471485Y-61666666D01*
X164471485Y-61666666D02*
X164471485Y-61047619D01*
X164138152Y-60238095D02*
X164804819Y-60238095D01*
X163757200Y-60476190D02*
X164471485Y-60714285D01*
X164471485Y-60714285D02*
X164471485Y-60095238D01*
X164804819Y-59714285D02*
X163804819Y-59714285D01*
X163804819Y-59714285D02*
X164804819Y-59142857D01*
X164804819Y-59142857D02*
X163804819Y-59142857D01*
X146452380Y-156754819D02*
X146119047Y-156278628D01*
X145880952Y-156754819D02*
X145880952Y-155754819D01*
X145880952Y-155754819D02*
X146261904Y-155754819D01*
X146261904Y-155754819D02*
X146357142Y-155802438D01*
X146357142Y-155802438D02*
X146404761Y-155850057D01*
X146404761Y-155850057D02*
X146452380Y-155945295D01*
X146452380Y-155945295D02*
X146452380Y-156088152D01*
X146452380Y-156088152D02*
X146404761Y-156183390D01*
X146404761Y-156183390D02*
X146357142Y-156231009D01*
X146357142Y-156231009D02*
X146261904Y-156278628D01*
X146261904Y-156278628D02*
X145880952Y-156278628D01*
X147261904Y-156707200D02*
X147166666Y-156754819D01*
X147166666Y-156754819D02*
X146976190Y-156754819D01*
X146976190Y-156754819D02*
X146880952Y-156707200D01*
X146880952Y-156707200D02*
X146833333Y-156611961D01*
X146833333Y-156611961D02*
X146833333Y-156231009D01*
X146833333Y-156231009D02*
X146880952Y-156135771D01*
X146880952Y-156135771D02*
X146976190Y-156088152D01*
X146976190Y-156088152D02*
X147166666Y-156088152D01*
X147166666Y-156088152D02*
X147261904Y-156135771D01*
X147261904Y-156135771D02*
X147309523Y-156231009D01*
X147309523Y-156231009D02*
X147309523Y-156326247D01*
X147309523Y-156326247D02*
X146833333Y-156421485D01*
X147642857Y-156088152D02*
X147880952Y-156754819D01*
X147880952Y-156754819D02*
X148119047Y-156088152D01*
X148880952Y-156707200D02*
X148785714Y-156754819D01*
X148785714Y-156754819D02*
X148595238Y-156754819D01*
X148595238Y-156754819D02*
X148500000Y-156707200D01*
X148500000Y-156707200D02*
X148452381Y-156611961D01*
X148452381Y-156611961D02*
X148452381Y-156231009D01*
X148452381Y-156231009D02*
X148500000Y-156135771D01*
X148500000Y-156135771D02*
X148595238Y-156088152D01*
X148595238Y-156088152D02*
X148785714Y-156088152D01*
X148785714Y-156088152D02*
X148880952Y-156135771D01*
X148880952Y-156135771D02*
X148928571Y-156231009D01*
X148928571Y-156231009D02*
X148928571Y-156326247D01*
X148928571Y-156326247D02*
X148452381Y-156421485D01*
X149357143Y-156754819D02*
X149357143Y-156088152D01*
X149357143Y-156278628D02*
X149404762Y-156183390D01*
X149404762Y-156183390D02*
X149452381Y-156135771D01*
X149452381Y-156135771D02*
X149547619Y-156088152D01*
X149547619Y-156088152D02*
X149642857Y-156088152D01*
X149928572Y-156707200D02*
X150023810Y-156754819D01*
X150023810Y-156754819D02*
X150214286Y-156754819D01*
X150214286Y-156754819D02*
X150309524Y-156707200D01*
X150309524Y-156707200D02*
X150357143Y-156611961D01*
X150357143Y-156611961D02*
X150357143Y-156564342D01*
X150357143Y-156564342D02*
X150309524Y-156469104D01*
X150309524Y-156469104D02*
X150214286Y-156421485D01*
X150214286Y-156421485D02*
X150071429Y-156421485D01*
X150071429Y-156421485D02*
X149976191Y-156373866D01*
X149976191Y-156373866D02*
X149928572Y-156278628D01*
X149928572Y-156278628D02*
X149928572Y-156231009D01*
X149928572Y-156231009D02*
X149976191Y-156135771D01*
X149976191Y-156135771D02*
X150071429Y-156088152D01*
X150071429Y-156088152D02*
X150214286Y-156088152D01*
X150214286Y-156088152D02*
X150309524Y-156135771D01*
X151166667Y-156707200D02*
X151071429Y-156754819D01*
X151071429Y-156754819D02*
X150880953Y-156754819D01*
X150880953Y-156754819D02*
X150785715Y-156707200D01*
X150785715Y-156707200D02*
X150738096Y-156611961D01*
X150738096Y-156611961D02*
X150738096Y-156231009D01*
X150738096Y-156231009D02*
X150785715Y-156135771D01*
X150785715Y-156135771D02*
X150880953Y-156088152D01*
X150880953Y-156088152D02*
X151071429Y-156088152D01*
X151071429Y-156088152D02*
X151166667Y-156135771D01*
X151166667Y-156135771D02*
X151214286Y-156231009D01*
X151214286Y-156231009D02*
X151214286Y-156326247D01*
X151214286Y-156326247D02*
X150738096Y-156421485D01*
X152166667Y-156754819D02*
X151595239Y-156754819D01*
X151880953Y-156754819D02*
X151880953Y-155754819D01*
X151880953Y-155754819D02*
X151785715Y-155897676D01*
X151785715Y-155897676D02*
X151690477Y-155992914D01*
X151690477Y-155992914D02*
X151595239Y-156040533D01*
X149065952Y-132414819D02*
X148732619Y-131938628D01*
X148494524Y-132414819D02*
X148494524Y-131414819D01*
X148494524Y-131414819D02*
X148875476Y-131414819D01*
X148875476Y-131414819D02*
X148970714Y-131462438D01*
X148970714Y-131462438D02*
X149018333Y-131510057D01*
X149018333Y-131510057D02*
X149065952Y-131605295D01*
X149065952Y-131605295D02*
X149065952Y-131748152D01*
X149065952Y-131748152D02*
X149018333Y-131843390D01*
X149018333Y-131843390D02*
X148970714Y-131891009D01*
X148970714Y-131891009D02*
X148875476Y-131938628D01*
X148875476Y-131938628D02*
X148494524Y-131938628D01*
X149399286Y-131414819D02*
X150018333Y-131414819D01*
X150018333Y-131414819D02*
X149685000Y-131795771D01*
X149685000Y-131795771D02*
X149827857Y-131795771D01*
X149827857Y-131795771D02*
X149923095Y-131843390D01*
X149923095Y-131843390D02*
X149970714Y-131891009D01*
X149970714Y-131891009D02*
X150018333Y-131986247D01*
X150018333Y-131986247D02*
X150018333Y-132224342D01*
X150018333Y-132224342D02*
X149970714Y-132319580D01*
X149970714Y-132319580D02*
X149923095Y-132367200D01*
X149923095Y-132367200D02*
X149827857Y-132414819D01*
X149827857Y-132414819D02*
X149542143Y-132414819D01*
X149542143Y-132414819D02*
X149446905Y-132367200D01*
X149446905Y-132367200D02*
X149399286Y-132319580D01*
X150637381Y-131414819D02*
X150732619Y-131414819D01*
X150732619Y-131414819D02*
X150827857Y-131462438D01*
X150827857Y-131462438D02*
X150875476Y-131510057D01*
X150875476Y-131510057D02*
X150923095Y-131605295D01*
X150923095Y-131605295D02*
X150970714Y-131795771D01*
X150970714Y-131795771D02*
X150970714Y-132033866D01*
X150970714Y-132033866D02*
X150923095Y-132224342D01*
X150923095Y-132224342D02*
X150875476Y-132319580D01*
X150875476Y-132319580D02*
X150827857Y-132367200D01*
X150827857Y-132367200D02*
X150732619Y-132414819D01*
X150732619Y-132414819D02*
X150637381Y-132414819D01*
X150637381Y-132414819D02*
X150542143Y-132367200D01*
X150542143Y-132367200D02*
X150494524Y-132319580D01*
X150494524Y-132319580D02*
X150446905Y-132224342D01*
X150446905Y-132224342D02*
X150399286Y-132033866D01*
X150399286Y-132033866D02*
X150399286Y-131795771D01*
X150399286Y-131795771D02*
X150446905Y-131605295D01*
X150446905Y-131605295D02*
X150494524Y-131510057D01*
X150494524Y-131510057D02*
X150542143Y-131462438D01*
X150542143Y-131462438D02*
X150637381Y-131414819D01*
X151589762Y-131414819D02*
X151685000Y-131414819D01*
X151685000Y-131414819D02*
X151780238Y-131462438D01*
X151780238Y-131462438D02*
X151827857Y-131510057D01*
X151827857Y-131510057D02*
X151875476Y-131605295D01*
X151875476Y-131605295D02*
X151923095Y-131795771D01*
X151923095Y-131795771D02*
X151923095Y-132033866D01*
X151923095Y-132033866D02*
X151875476Y-132224342D01*
X151875476Y-132224342D02*
X151827857Y-132319580D01*
X151827857Y-132319580D02*
X151780238Y-132367200D01*
X151780238Y-132367200D02*
X151685000Y-132414819D01*
X151685000Y-132414819D02*
X151589762Y-132414819D01*
X151589762Y-132414819D02*
X151494524Y-132367200D01*
X151494524Y-132367200D02*
X151446905Y-132319580D01*
X151446905Y-132319580D02*
X151399286Y-132224342D01*
X151399286Y-132224342D02*
X151351667Y-132033866D01*
X151351667Y-132033866D02*
X151351667Y-131795771D01*
X151351667Y-131795771D02*
X151399286Y-131605295D01*
X151399286Y-131605295D02*
X151446905Y-131510057D01*
X151446905Y-131510057D02*
X151494524Y-131462438D01*
X151494524Y-131462438D02*
X151589762Y-131414819D01*
X147999524Y-110235728D02*
X147999524Y-109235728D01*
X147999524Y-109235728D02*
X148380476Y-109235728D01*
X148380476Y-109235728D02*
X148475714Y-109283347D01*
X148475714Y-109283347D02*
X148523333Y-109330966D01*
X148523333Y-109330966D02*
X148570952Y-109426204D01*
X148570952Y-109426204D02*
X148570952Y-109569061D01*
X148570952Y-109569061D02*
X148523333Y-109664299D01*
X148523333Y-109664299D02*
X148475714Y-109711918D01*
X148475714Y-109711918D02*
X148380476Y-109759537D01*
X148380476Y-109759537D02*
X147999524Y-109759537D01*
X149570952Y-110140489D02*
X149523333Y-110188109D01*
X149523333Y-110188109D02*
X149380476Y-110235728D01*
X149380476Y-110235728D02*
X149285238Y-110235728D01*
X149285238Y-110235728D02*
X149142381Y-110188109D01*
X149142381Y-110188109D02*
X149047143Y-110092870D01*
X149047143Y-110092870D02*
X148999524Y-109997632D01*
X148999524Y-109997632D02*
X148951905Y-109807156D01*
X148951905Y-109807156D02*
X148951905Y-109664299D01*
X148951905Y-109664299D02*
X148999524Y-109473823D01*
X148999524Y-109473823D02*
X149047143Y-109378585D01*
X149047143Y-109378585D02*
X149142381Y-109283347D01*
X149142381Y-109283347D02*
X149285238Y-109235728D01*
X149285238Y-109235728D02*
X149380476Y-109235728D01*
X149380476Y-109235728D02*
X149523333Y-109283347D01*
X149523333Y-109283347D02*
X149570952Y-109330966D01*
X150142381Y-109664299D02*
X150047143Y-109616680D01*
X150047143Y-109616680D02*
X149999524Y-109569061D01*
X149999524Y-109569061D02*
X149951905Y-109473823D01*
X149951905Y-109473823D02*
X149951905Y-109426204D01*
X149951905Y-109426204D02*
X149999524Y-109330966D01*
X149999524Y-109330966D02*
X150047143Y-109283347D01*
X150047143Y-109283347D02*
X150142381Y-109235728D01*
X150142381Y-109235728D02*
X150332857Y-109235728D01*
X150332857Y-109235728D02*
X150428095Y-109283347D01*
X150428095Y-109283347D02*
X150475714Y-109330966D01*
X150475714Y-109330966D02*
X150523333Y-109426204D01*
X150523333Y-109426204D02*
X150523333Y-109473823D01*
X150523333Y-109473823D02*
X150475714Y-109569061D01*
X150475714Y-109569061D02*
X150428095Y-109616680D01*
X150428095Y-109616680D02*
X150332857Y-109664299D01*
X150332857Y-109664299D02*
X150142381Y-109664299D01*
X150142381Y-109664299D02*
X150047143Y-109711918D01*
X150047143Y-109711918D02*
X149999524Y-109759537D01*
X149999524Y-109759537D02*
X149951905Y-109854775D01*
X149951905Y-109854775D02*
X149951905Y-110045251D01*
X149951905Y-110045251D02*
X149999524Y-110140489D01*
X149999524Y-110140489D02*
X150047143Y-110188109D01*
X150047143Y-110188109D02*
X150142381Y-110235728D01*
X150142381Y-110235728D02*
X150332857Y-110235728D01*
X150332857Y-110235728D02*
X150428095Y-110188109D01*
X150428095Y-110188109D02*
X150475714Y-110140489D01*
X150475714Y-110140489D02*
X150523333Y-110045251D01*
X150523333Y-110045251D02*
X150523333Y-109854775D01*
X150523333Y-109854775D02*
X150475714Y-109759537D01*
X150475714Y-109759537D02*
X150428095Y-109711918D01*
X150428095Y-109711918D02*
X150332857Y-109664299D01*
X151475714Y-110235728D02*
X150904286Y-110235728D01*
X151190000Y-110235728D02*
X151190000Y-109235728D01*
X151190000Y-109235728D02*
X151094762Y-109378585D01*
X151094762Y-109378585D02*
X150999524Y-109473823D01*
X150999524Y-109473823D02*
X150904286Y-109521442D01*
X151809048Y-109235728D02*
X152475714Y-109235728D01*
X152475714Y-109235728D02*
X152047143Y-110235728D01*
X158034819Y-139922337D02*
X157558628Y-140255670D01*
X158034819Y-140493765D02*
X157034819Y-140493765D01*
X157034819Y-140493765D02*
X157034819Y-140112813D01*
X157034819Y-140112813D02*
X157082438Y-140017575D01*
X157082438Y-140017575D02*
X157130057Y-139969956D01*
X157130057Y-139969956D02*
X157225295Y-139922337D01*
X157225295Y-139922337D02*
X157368152Y-139922337D01*
X157368152Y-139922337D02*
X157463390Y-139969956D01*
X157463390Y-139969956D02*
X157511009Y-140017575D01*
X157511009Y-140017575D02*
X157558628Y-140112813D01*
X157558628Y-140112813D02*
X157558628Y-140493765D01*
X158034819Y-138969956D02*
X158034819Y-139541384D01*
X158034819Y-139255670D02*
X157034819Y-139255670D01*
X157034819Y-139255670D02*
X157177676Y-139350908D01*
X157177676Y-139350908D02*
X157272914Y-139446146D01*
X157272914Y-139446146D02*
X157320533Y-139541384D01*
X158034819Y-138541384D02*
X157034819Y-138541384D01*
X157653866Y-138446146D02*
X158034819Y-138160432D01*
X157368152Y-138160432D02*
X157749104Y-138541384D01*
X164900057Y-99095238D02*
X164852438Y-99190476D01*
X164852438Y-99190476D02*
X164757200Y-99285714D01*
X164757200Y-99285714D02*
X164614342Y-99428571D01*
X164614342Y-99428571D02*
X164566723Y-99523809D01*
X164566723Y-99523809D02*
X164566723Y-99619047D01*
X164804819Y-99571428D02*
X164757200Y-99666666D01*
X164757200Y-99666666D02*
X164661961Y-99761904D01*
X164661961Y-99761904D02*
X164471485Y-99809523D01*
X164471485Y-99809523D02*
X164138152Y-99809523D01*
X164138152Y-99809523D02*
X163947676Y-99761904D01*
X163947676Y-99761904D02*
X163852438Y-99666666D01*
X163852438Y-99666666D02*
X163804819Y-99571428D01*
X163804819Y-99571428D02*
X163804819Y-99380952D01*
X163804819Y-99380952D02*
X163852438Y-99285714D01*
X163852438Y-99285714D02*
X163947676Y-99190476D01*
X163947676Y-99190476D02*
X164138152Y-99142857D01*
X164138152Y-99142857D02*
X164471485Y-99142857D01*
X164471485Y-99142857D02*
X164661961Y-99190476D01*
X164661961Y-99190476D02*
X164757200Y-99285714D01*
X164757200Y-99285714D02*
X164804819Y-99380952D01*
X164804819Y-99380952D02*
X164804819Y-99571428D01*
X163804819Y-98809523D02*
X163804819Y-98190476D01*
X163804819Y-98190476D02*
X164185771Y-98523809D01*
X164185771Y-98523809D02*
X164185771Y-98380952D01*
X164185771Y-98380952D02*
X164233390Y-98285714D01*
X164233390Y-98285714D02*
X164281009Y-98238095D01*
X164281009Y-98238095D02*
X164376247Y-98190476D01*
X164376247Y-98190476D02*
X164614342Y-98190476D01*
X164614342Y-98190476D02*
X164709580Y-98238095D01*
X164709580Y-98238095D02*
X164757200Y-98285714D01*
X164757200Y-98285714D02*
X164804819Y-98380952D01*
X164804819Y-98380952D02*
X164804819Y-98666666D01*
X164804819Y-98666666D02*
X164757200Y-98761904D01*
X164757200Y-98761904D02*
X164709580Y-98809523D01*
X147999524Y-55584819D02*
X147999524Y-54584819D01*
X147999524Y-54584819D02*
X148380476Y-54584819D01*
X148380476Y-54584819D02*
X148475714Y-54632438D01*
X148475714Y-54632438D02*
X148523333Y-54680057D01*
X148523333Y-54680057D02*
X148570952Y-54775295D01*
X148570952Y-54775295D02*
X148570952Y-54918152D01*
X148570952Y-54918152D02*
X148523333Y-55013390D01*
X148523333Y-55013390D02*
X148475714Y-55061009D01*
X148475714Y-55061009D02*
X148380476Y-55108628D01*
X148380476Y-55108628D02*
X147999524Y-55108628D01*
X149570952Y-55489580D02*
X149523333Y-55537200D01*
X149523333Y-55537200D02*
X149380476Y-55584819D01*
X149380476Y-55584819D02*
X149285238Y-55584819D01*
X149285238Y-55584819D02*
X149142381Y-55537200D01*
X149142381Y-55537200D02*
X149047143Y-55441961D01*
X149047143Y-55441961D02*
X148999524Y-55346723D01*
X148999524Y-55346723D02*
X148951905Y-55156247D01*
X148951905Y-55156247D02*
X148951905Y-55013390D01*
X148951905Y-55013390D02*
X148999524Y-54822914D01*
X148999524Y-54822914D02*
X149047143Y-54727676D01*
X149047143Y-54727676D02*
X149142381Y-54632438D01*
X149142381Y-54632438D02*
X149285238Y-54584819D01*
X149285238Y-54584819D02*
X149380476Y-54584819D01*
X149380476Y-54584819D02*
X149523333Y-54632438D01*
X149523333Y-54632438D02*
X149570952Y-54680057D01*
X150142381Y-55013390D02*
X150047143Y-54965771D01*
X150047143Y-54965771D02*
X149999524Y-54918152D01*
X149999524Y-54918152D02*
X149951905Y-54822914D01*
X149951905Y-54822914D02*
X149951905Y-54775295D01*
X149951905Y-54775295D02*
X149999524Y-54680057D01*
X149999524Y-54680057D02*
X150047143Y-54632438D01*
X150047143Y-54632438D02*
X150142381Y-54584819D01*
X150142381Y-54584819D02*
X150332857Y-54584819D01*
X150332857Y-54584819D02*
X150428095Y-54632438D01*
X150428095Y-54632438D02*
X150475714Y-54680057D01*
X150475714Y-54680057D02*
X150523333Y-54775295D01*
X150523333Y-54775295D02*
X150523333Y-54822914D01*
X150523333Y-54822914D02*
X150475714Y-54918152D01*
X150475714Y-54918152D02*
X150428095Y-54965771D01*
X150428095Y-54965771D02*
X150332857Y-55013390D01*
X150332857Y-55013390D02*
X150142381Y-55013390D01*
X150142381Y-55013390D02*
X150047143Y-55061009D01*
X150047143Y-55061009D02*
X149999524Y-55108628D01*
X149999524Y-55108628D02*
X149951905Y-55203866D01*
X149951905Y-55203866D02*
X149951905Y-55394342D01*
X149951905Y-55394342D02*
X149999524Y-55489580D01*
X149999524Y-55489580D02*
X150047143Y-55537200D01*
X150047143Y-55537200D02*
X150142381Y-55584819D01*
X150142381Y-55584819D02*
X150332857Y-55584819D01*
X150332857Y-55584819D02*
X150428095Y-55537200D01*
X150428095Y-55537200D02*
X150475714Y-55489580D01*
X150475714Y-55489580D02*
X150523333Y-55394342D01*
X150523333Y-55394342D02*
X150523333Y-55203866D01*
X150523333Y-55203866D02*
X150475714Y-55108628D01*
X150475714Y-55108628D02*
X150428095Y-55061009D01*
X150428095Y-55061009D02*
X150332857Y-55013390D01*
X151475714Y-55584819D02*
X150904286Y-55584819D01*
X151190000Y-55584819D02*
X151190000Y-54584819D01*
X151190000Y-54584819D02*
X151094762Y-54727676D01*
X151094762Y-54727676D02*
X150999524Y-54822914D01*
X150999524Y-54822914D02*
X150904286Y-54870533D01*
X151809048Y-54584819D02*
X152475714Y-54584819D01*
X152475714Y-54584819D02*
X152047143Y-55584819D01*
X121874819Y-71857619D02*
X121398628Y-72190952D01*
X121874819Y-72429047D02*
X120874819Y-72429047D01*
X120874819Y-72429047D02*
X120874819Y-72048095D01*
X120874819Y-72048095D02*
X120922438Y-71952857D01*
X120922438Y-71952857D02*
X120970057Y-71905238D01*
X120970057Y-71905238D02*
X121065295Y-71857619D01*
X121065295Y-71857619D02*
X121208152Y-71857619D01*
X121208152Y-71857619D02*
X121303390Y-71905238D01*
X121303390Y-71905238D02*
X121351009Y-71952857D01*
X121351009Y-71952857D02*
X121398628Y-72048095D01*
X121398628Y-72048095D02*
X121398628Y-72429047D01*
X121874819Y-71381428D02*
X121874819Y-71190952D01*
X121874819Y-71190952D02*
X121827200Y-71095714D01*
X121827200Y-71095714D02*
X121779580Y-71048095D01*
X121779580Y-71048095D02*
X121636723Y-70952857D01*
X121636723Y-70952857D02*
X121446247Y-70905238D01*
X121446247Y-70905238D02*
X121065295Y-70905238D01*
X121065295Y-70905238D02*
X120970057Y-70952857D01*
X120970057Y-70952857D02*
X120922438Y-71000476D01*
X120922438Y-71000476D02*
X120874819Y-71095714D01*
X120874819Y-71095714D02*
X120874819Y-71286190D01*
X120874819Y-71286190D02*
X120922438Y-71381428D01*
X120922438Y-71381428D02*
X120970057Y-71429047D01*
X120970057Y-71429047D02*
X121065295Y-71476666D01*
X121065295Y-71476666D02*
X121303390Y-71476666D01*
X121303390Y-71476666D02*
X121398628Y-71429047D01*
X121398628Y-71429047D02*
X121446247Y-71381428D01*
X121446247Y-71381428D02*
X121493866Y-71286190D01*
X121493866Y-71286190D02*
X121493866Y-71095714D01*
X121493866Y-71095714D02*
X121446247Y-71000476D01*
X121446247Y-71000476D02*
X121398628Y-70952857D01*
X121398628Y-70952857D02*
X121303390Y-70905238D01*
X121874819Y-69952857D02*
X121874819Y-70524285D01*
X121874819Y-70238571D02*
X120874819Y-70238571D01*
X120874819Y-70238571D02*
X121017676Y-70333809D01*
X121017676Y-70333809D02*
X121112914Y-70429047D01*
X121112914Y-70429047D02*
X121160533Y-70524285D01*
X121874819Y-69524285D02*
X120874819Y-69524285D01*
X121493866Y-69429047D02*
X121874819Y-69143333D01*
X121208152Y-69143333D02*
X121589104Y-69524285D01*
X147999524Y-82910274D02*
X147999524Y-81910274D01*
X147999524Y-81910274D02*
X148380476Y-81910274D01*
X148380476Y-81910274D02*
X148475714Y-81957893D01*
X148475714Y-81957893D02*
X148523333Y-82005512D01*
X148523333Y-82005512D02*
X148570952Y-82100750D01*
X148570952Y-82100750D02*
X148570952Y-82243607D01*
X148570952Y-82243607D02*
X148523333Y-82338845D01*
X148523333Y-82338845D02*
X148475714Y-82386464D01*
X148475714Y-82386464D02*
X148380476Y-82434083D01*
X148380476Y-82434083D02*
X147999524Y-82434083D01*
X149570952Y-82815035D02*
X149523333Y-82862655D01*
X149523333Y-82862655D02*
X149380476Y-82910274D01*
X149380476Y-82910274D02*
X149285238Y-82910274D01*
X149285238Y-82910274D02*
X149142381Y-82862655D01*
X149142381Y-82862655D02*
X149047143Y-82767416D01*
X149047143Y-82767416D02*
X148999524Y-82672178D01*
X148999524Y-82672178D02*
X148951905Y-82481702D01*
X148951905Y-82481702D02*
X148951905Y-82338845D01*
X148951905Y-82338845D02*
X148999524Y-82148369D01*
X148999524Y-82148369D02*
X149047143Y-82053131D01*
X149047143Y-82053131D02*
X149142381Y-81957893D01*
X149142381Y-81957893D02*
X149285238Y-81910274D01*
X149285238Y-81910274D02*
X149380476Y-81910274D01*
X149380476Y-81910274D02*
X149523333Y-81957893D01*
X149523333Y-81957893D02*
X149570952Y-82005512D01*
X150142381Y-82338845D02*
X150047143Y-82291226D01*
X150047143Y-82291226D02*
X149999524Y-82243607D01*
X149999524Y-82243607D02*
X149951905Y-82148369D01*
X149951905Y-82148369D02*
X149951905Y-82100750D01*
X149951905Y-82100750D02*
X149999524Y-82005512D01*
X149999524Y-82005512D02*
X150047143Y-81957893D01*
X150047143Y-81957893D02*
X150142381Y-81910274D01*
X150142381Y-81910274D02*
X150332857Y-81910274D01*
X150332857Y-81910274D02*
X150428095Y-81957893D01*
X150428095Y-81957893D02*
X150475714Y-82005512D01*
X150475714Y-82005512D02*
X150523333Y-82100750D01*
X150523333Y-82100750D02*
X150523333Y-82148369D01*
X150523333Y-82148369D02*
X150475714Y-82243607D01*
X150475714Y-82243607D02*
X150428095Y-82291226D01*
X150428095Y-82291226D02*
X150332857Y-82338845D01*
X150332857Y-82338845D02*
X150142381Y-82338845D01*
X150142381Y-82338845D02*
X150047143Y-82386464D01*
X150047143Y-82386464D02*
X149999524Y-82434083D01*
X149999524Y-82434083D02*
X149951905Y-82529321D01*
X149951905Y-82529321D02*
X149951905Y-82719797D01*
X149951905Y-82719797D02*
X149999524Y-82815035D01*
X149999524Y-82815035D02*
X150047143Y-82862655D01*
X150047143Y-82862655D02*
X150142381Y-82910274D01*
X150142381Y-82910274D02*
X150332857Y-82910274D01*
X150332857Y-82910274D02*
X150428095Y-82862655D01*
X150428095Y-82862655D02*
X150475714Y-82815035D01*
X150475714Y-82815035D02*
X150523333Y-82719797D01*
X150523333Y-82719797D02*
X150523333Y-82529321D01*
X150523333Y-82529321D02*
X150475714Y-82434083D01*
X150475714Y-82434083D02*
X150428095Y-82386464D01*
X150428095Y-82386464D02*
X150332857Y-82338845D01*
X151475714Y-82910274D02*
X150904286Y-82910274D01*
X151190000Y-82910274D02*
X151190000Y-81910274D01*
X151190000Y-81910274D02*
X151094762Y-82053131D01*
X151094762Y-82053131D02*
X150999524Y-82148369D01*
X150999524Y-82148369D02*
X150904286Y-82195988D01*
X151809048Y-81910274D02*
X152475714Y-81910274D01*
X152475714Y-81910274D02*
X152047143Y-82910274D01*
X164900057Y-117595238D02*
X164852438Y-117690476D01*
X164852438Y-117690476D02*
X164757200Y-117785714D01*
X164757200Y-117785714D02*
X164614342Y-117928571D01*
X164614342Y-117928571D02*
X164566723Y-118023809D01*
X164566723Y-118023809D02*
X164566723Y-118119047D01*
X164804819Y-118071428D02*
X164757200Y-118166666D01*
X164757200Y-118166666D02*
X164661961Y-118261904D01*
X164661961Y-118261904D02*
X164471485Y-118309523D01*
X164471485Y-118309523D02*
X164138152Y-118309523D01*
X164138152Y-118309523D02*
X163947676Y-118261904D01*
X163947676Y-118261904D02*
X163852438Y-118166666D01*
X163852438Y-118166666D02*
X163804819Y-118071428D01*
X163804819Y-118071428D02*
X163804819Y-117880952D01*
X163804819Y-117880952D02*
X163852438Y-117785714D01*
X163852438Y-117785714D02*
X163947676Y-117690476D01*
X163947676Y-117690476D02*
X164138152Y-117642857D01*
X164138152Y-117642857D02*
X164471485Y-117642857D01*
X164471485Y-117642857D02*
X164661961Y-117690476D01*
X164661961Y-117690476D02*
X164757200Y-117785714D01*
X164757200Y-117785714D02*
X164804819Y-117880952D01*
X164804819Y-117880952D02*
X164804819Y-118071428D01*
X164138152Y-116785714D02*
X164804819Y-116785714D01*
X163757200Y-117023809D02*
X164471485Y-117261904D01*
X164471485Y-117261904D02*
X164471485Y-116642857D01*
X135995580Y-86407428D02*
X136043200Y-86455047D01*
X136043200Y-86455047D02*
X136090819Y-86597904D01*
X136090819Y-86597904D02*
X136090819Y-86693142D01*
X136090819Y-86693142D02*
X136043200Y-86835999D01*
X136043200Y-86835999D02*
X135947961Y-86931237D01*
X135947961Y-86931237D02*
X135852723Y-86978856D01*
X135852723Y-86978856D02*
X135662247Y-87026475D01*
X135662247Y-87026475D02*
X135519390Y-87026475D01*
X135519390Y-87026475D02*
X135328914Y-86978856D01*
X135328914Y-86978856D02*
X135233676Y-86931237D01*
X135233676Y-86931237D02*
X135138438Y-86835999D01*
X135138438Y-86835999D02*
X135090819Y-86693142D01*
X135090819Y-86693142D02*
X135090819Y-86597904D01*
X135090819Y-86597904D02*
X135138438Y-86455047D01*
X135138438Y-86455047D02*
X135186057Y-86407428D01*
X136090819Y-85455047D02*
X136090819Y-86026475D01*
X136090819Y-85740761D02*
X135090819Y-85740761D01*
X135090819Y-85740761D02*
X135233676Y-85835999D01*
X135233676Y-85835999D02*
X135328914Y-85931237D01*
X135328914Y-85931237D02*
X135376533Y-86026475D01*
X135090819Y-84835999D02*
X135090819Y-84740761D01*
X135090819Y-84740761D02*
X135138438Y-84645523D01*
X135138438Y-84645523D02*
X135186057Y-84597904D01*
X135186057Y-84597904D02*
X135281295Y-84550285D01*
X135281295Y-84550285D02*
X135471771Y-84502666D01*
X135471771Y-84502666D02*
X135709866Y-84502666D01*
X135709866Y-84502666D02*
X135900342Y-84550285D01*
X135900342Y-84550285D02*
X135995580Y-84597904D01*
X135995580Y-84597904D02*
X136043200Y-84645523D01*
X136043200Y-84645523D02*
X136090819Y-84740761D01*
X136090819Y-84740761D02*
X136090819Y-84835999D01*
X136090819Y-84835999D02*
X136043200Y-84931237D01*
X136043200Y-84931237D02*
X135995580Y-84978856D01*
X135995580Y-84978856D02*
X135900342Y-85026475D01*
X135900342Y-85026475D02*
X135709866Y-85074094D01*
X135709866Y-85074094D02*
X135471771Y-85074094D01*
X135471771Y-85074094D02*
X135281295Y-85026475D01*
X135281295Y-85026475D02*
X135186057Y-84978856D01*
X135186057Y-84978856D02*
X135138438Y-84931237D01*
X135138438Y-84931237D02*
X135090819Y-84835999D01*
X135090819Y-83883618D02*
X135090819Y-83788380D01*
X135090819Y-83788380D02*
X135138438Y-83693142D01*
X135138438Y-83693142D02*
X135186057Y-83645523D01*
X135186057Y-83645523D02*
X135281295Y-83597904D01*
X135281295Y-83597904D02*
X135471771Y-83550285D01*
X135471771Y-83550285D02*
X135709866Y-83550285D01*
X135709866Y-83550285D02*
X135900342Y-83597904D01*
X135900342Y-83597904D02*
X135995580Y-83645523D01*
X135995580Y-83645523D02*
X136043200Y-83693142D01*
X136043200Y-83693142D02*
X136090819Y-83788380D01*
X136090819Y-83788380D02*
X136090819Y-83883618D01*
X136090819Y-83883618D02*
X136043200Y-83978856D01*
X136043200Y-83978856D02*
X135995580Y-84026475D01*
X135995580Y-84026475D02*
X135900342Y-84074094D01*
X135900342Y-84074094D02*
X135709866Y-84121713D01*
X135709866Y-84121713D02*
X135471771Y-84121713D01*
X135471771Y-84121713D02*
X135281295Y-84074094D01*
X135281295Y-84074094D02*
X135186057Y-84026475D01*
X135186057Y-84026475D02*
X135138438Y-83978856D01*
X135138438Y-83978856D02*
X135090819Y-83883618D01*
X135424152Y-83121713D02*
X136090819Y-83121713D01*
X135519390Y-83121713D02*
X135471771Y-83074094D01*
X135471771Y-83074094D02*
X135424152Y-82978856D01*
X135424152Y-82978856D02*
X135424152Y-82835999D01*
X135424152Y-82835999D02*
X135471771Y-82740761D01*
X135471771Y-82740761D02*
X135567009Y-82693142D01*
X135567009Y-82693142D02*
X136090819Y-82693142D01*
X118034819Y-60071428D02*
X117558628Y-60404761D01*
X118034819Y-60642856D02*
X117034819Y-60642856D01*
X117034819Y-60642856D02*
X117034819Y-60261904D01*
X117034819Y-60261904D02*
X117082438Y-60166666D01*
X117082438Y-60166666D02*
X117130057Y-60119047D01*
X117130057Y-60119047D02*
X117225295Y-60071428D01*
X117225295Y-60071428D02*
X117368152Y-60071428D01*
X117368152Y-60071428D02*
X117463390Y-60119047D01*
X117463390Y-60119047D02*
X117511009Y-60166666D01*
X117511009Y-60166666D02*
X117558628Y-60261904D01*
X117558628Y-60261904D02*
X117558628Y-60642856D01*
X118034819Y-59119047D02*
X118034819Y-59690475D01*
X118034819Y-59404761D02*
X117034819Y-59404761D01*
X117034819Y-59404761D02*
X117177676Y-59499999D01*
X117177676Y-59499999D02*
X117272914Y-59595237D01*
X117272914Y-59595237D02*
X117320533Y-59690475D01*
X118034819Y-58690475D02*
X117034819Y-58690475D01*
X117653866Y-58595237D02*
X118034819Y-58309523D01*
X117368152Y-58309523D02*
X117749104Y-58690475D01*
X126876666Y-54384819D02*
X126876666Y-55099104D01*
X126876666Y-55099104D02*
X126829047Y-55241961D01*
X126829047Y-55241961D02*
X126733809Y-55337200D01*
X126733809Y-55337200D02*
X126590952Y-55384819D01*
X126590952Y-55384819D02*
X126495714Y-55384819D01*
X127829047Y-54384819D02*
X127352857Y-54384819D01*
X127352857Y-54384819D02*
X127305238Y-54861009D01*
X127305238Y-54861009D02*
X127352857Y-54813390D01*
X127352857Y-54813390D02*
X127448095Y-54765771D01*
X127448095Y-54765771D02*
X127686190Y-54765771D01*
X127686190Y-54765771D02*
X127781428Y-54813390D01*
X127781428Y-54813390D02*
X127829047Y-54861009D01*
X127829047Y-54861009D02*
X127876666Y-54956247D01*
X127876666Y-54956247D02*
X127876666Y-55194342D01*
X127876666Y-55194342D02*
X127829047Y-55289580D01*
X127829047Y-55289580D02*
X127781428Y-55337200D01*
X127781428Y-55337200D02*
X127686190Y-55384819D01*
X127686190Y-55384819D02*
X127448095Y-55384819D01*
X127448095Y-55384819D02*
X127352857Y-55337200D01*
X127352857Y-55337200D02*
X127305238Y-55289580D01*
X140534819Y-115734155D02*
X140058628Y-116067488D01*
X140534819Y-116305583D02*
X139534819Y-116305583D01*
X139534819Y-116305583D02*
X139534819Y-115924631D01*
X139534819Y-115924631D02*
X139582438Y-115829393D01*
X139582438Y-115829393D02*
X139630057Y-115781774D01*
X139630057Y-115781774D02*
X139725295Y-115734155D01*
X139725295Y-115734155D02*
X139868152Y-115734155D01*
X139868152Y-115734155D02*
X139963390Y-115781774D01*
X139963390Y-115781774D02*
X140011009Y-115829393D01*
X140011009Y-115829393D02*
X140058628Y-115924631D01*
X140058628Y-115924631D02*
X140058628Y-116305583D01*
X140534819Y-114781774D02*
X140534819Y-115353202D01*
X140534819Y-115067488D02*
X139534819Y-115067488D01*
X139534819Y-115067488D02*
X139677676Y-115162726D01*
X139677676Y-115162726D02*
X139772914Y-115257964D01*
X139772914Y-115257964D02*
X139820533Y-115353202D01*
X140534819Y-114353202D02*
X139534819Y-114353202D01*
X140153866Y-114257964D02*
X140534819Y-113972250D01*
X139868152Y-113972250D02*
X140249104Y-114353202D01*
X149065952Y-91426637D02*
X148732619Y-90950446D01*
X148494524Y-91426637D02*
X148494524Y-90426637D01*
X148494524Y-90426637D02*
X148875476Y-90426637D01*
X148875476Y-90426637D02*
X148970714Y-90474256D01*
X148970714Y-90474256D02*
X149018333Y-90521875D01*
X149018333Y-90521875D02*
X149065952Y-90617113D01*
X149065952Y-90617113D02*
X149065952Y-90759970D01*
X149065952Y-90759970D02*
X149018333Y-90855208D01*
X149018333Y-90855208D02*
X148970714Y-90902827D01*
X148970714Y-90902827D02*
X148875476Y-90950446D01*
X148875476Y-90950446D02*
X148494524Y-90950446D01*
X149399286Y-90426637D02*
X150018333Y-90426637D01*
X150018333Y-90426637D02*
X149685000Y-90807589D01*
X149685000Y-90807589D02*
X149827857Y-90807589D01*
X149827857Y-90807589D02*
X149923095Y-90855208D01*
X149923095Y-90855208D02*
X149970714Y-90902827D01*
X149970714Y-90902827D02*
X150018333Y-90998065D01*
X150018333Y-90998065D02*
X150018333Y-91236160D01*
X150018333Y-91236160D02*
X149970714Y-91331398D01*
X149970714Y-91331398D02*
X149923095Y-91379018D01*
X149923095Y-91379018D02*
X149827857Y-91426637D01*
X149827857Y-91426637D02*
X149542143Y-91426637D01*
X149542143Y-91426637D02*
X149446905Y-91379018D01*
X149446905Y-91379018D02*
X149399286Y-91331398D01*
X150637381Y-90426637D02*
X150732619Y-90426637D01*
X150732619Y-90426637D02*
X150827857Y-90474256D01*
X150827857Y-90474256D02*
X150875476Y-90521875D01*
X150875476Y-90521875D02*
X150923095Y-90617113D01*
X150923095Y-90617113D02*
X150970714Y-90807589D01*
X150970714Y-90807589D02*
X150970714Y-91045684D01*
X150970714Y-91045684D02*
X150923095Y-91236160D01*
X150923095Y-91236160D02*
X150875476Y-91331398D01*
X150875476Y-91331398D02*
X150827857Y-91379018D01*
X150827857Y-91379018D02*
X150732619Y-91426637D01*
X150732619Y-91426637D02*
X150637381Y-91426637D01*
X150637381Y-91426637D02*
X150542143Y-91379018D01*
X150542143Y-91379018D02*
X150494524Y-91331398D01*
X150494524Y-91331398D02*
X150446905Y-91236160D01*
X150446905Y-91236160D02*
X150399286Y-91045684D01*
X150399286Y-91045684D02*
X150399286Y-90807589D01*
X150399286Y-90807589D02*
X150446905Y-90617113D01*
X150446905Y-90617113D02*
X150494524Y-90521875D01*
X150494524Y-90521875D02*
X150542143Y-90474256D01*
X150542143Y-90474256D02*
X150637381Y-90426637D01*
X151589762Y-90426637D02*
X151685000Y-90426637D01*
X151685000Y-90426637D02*
X151780238Y-90474256D01*
X151780238Y-90474256D02*
X151827857Y-90521875D01*
X151827857Y-90521875D02*
X151875476Y-90617113D01*
X151875476Y-90617113D02*
X151923095Y-90807589D01*
X151923095Y-90807589D02*
X151923095Y-91045684D01*
X151923095Y-91045684D02*
X151875476Y-91236160D01*
X151875476Y-91236160D02*
X151827857Y-91331398D01*
X151827857Y-91331398D02*
X151780238Y-91379018D01*
X151780238Y-91379018D02*
X151685000Y-91426637D01*
X151685000Y-91426637D02*
X151589762Y-91426637D01*
X151589762Y-91426637D02*
X151494524Y-91379018D01*
X151494524Y-91379018D02*
X151446905Y-91331398D01*
X151446905Y-91331398D02*
X151399286Y-91236160D01*
X151399286Y-91236160D02*
X151351667Y-91045684D01*
X151351667Y-91045684D02*
X151351667Y-90807589D01*
X151351667Y-90807589D02*
X151399286Y-90617113D01*
X151399286Y-90617113D02*
X151446905Y-90521875D01*
X151446905Y-90521875D02*
X151494524Y-90474256D01*
X151494524Y-90474256D02*
X151589762Y-90426637D01*
X140534819Y-129734155D02*
X140058628Y-130067488D01*
X140534819Y-130305583D02*
X139534819Y-130305583D01*
X139534819Y-130305583D02*
X139534819Y-129924631D01*
X139534819Y-129924631D02*
X139582438Y-129829393D01*
X139582438Y-129829393D02*
X139630057Y-129781774D01*
X139630057Y-129781774D02*
X139725295Y-129734155D01*
X139725295Y-129734155D02*
X139868152Y-129734155D01*
X139868152Y-129734155D02*
X139963390Y-129781774D01*
X139963390Y-129781774D02*
X140011009Y-129829393D01*
X140011009Y-129829393D02*
X140058628Y-129924631D01*
X140058628Y-129924631D02*
X140058628Y-130305583D01*
X140534819Y-128781774D02*
X140534819Y-129353202D01*
X140534819Y-129067488D02*
X139534819Y-129067488D01*
X139534819Y-129067488D02*
X139677676Y-129162726D01*
X139677676Y-129162726D02*
X139772914Y-129257964D01*
X139772914Y-129257964D02*
X139820533Y-129353202D01*
X140534819Y-128353202D02*
X139534819Y-128353202D01*
X140153866Y-128257964D02*
X140534819Y-127972250D01*
X139868152Y-127972250D02*
X140249104Y-128353202D01*
X164900057Y-136095238D02*
X164852438Y-136190476D01*
X164852438Y-136190476D02*
X164757200Y-136285714D01*
X164757200Y-136285714D02*
X164614342Y-136428571D01*
X164614342Y-136428571D02*
X164566723Y-136523809D01*
X164566723Y-136523809D02*
X164566723Y-136619047D01*
X164804819Y-136571428D02*
X164757200Y-136666666D01*
X164757200Y-136666666D02*
X164661961Y-136761904D01*
X164661961Y-136761904D02*
X164471485Y-136809523D01*
X164471485Y-136809523D02*
X164138152Y-136809523D01*
X164138152Y-136809523D02*
X163947676Y-136761904D01*
X163947676Y-136761904D02*
X163852438Y-136666666D01*
X163852438Y-136666666D02*
X163804819Y-136571428D01*
X163804819Y-136571428D02*
X163804819Y-136380952D01*
X163804819Y-136380952D02*
X163852438Y-136285714D01*
X163852438Y-136285714D02*
X163947676Y-136190476D01*
X163947676Y-136190476D02*
X164138152Y-136142857D01*
X164138152Y-136142857D02*
X164471485Y-136142857D01*
X164471485Y-136142857D02*
X164661961Y-136190476D01*
X164661961Y-136190476D02*
X164757200Y-136285714D01*
X164757200Y-136285714D02*
X164804819Y-136380952D01*
X164804819Y-136380952D02*
X164804819Y-136571428D01*
X163804819Y-135238095D02*
X163804819Y-135714285D01*
X163804819Y-135714285D02*
X164281009Y-135761904D01*
X164281009Y-135761904D02*
X164233390Y-135714285D01*
X164233390Y-135714285D02*
X164185771Y-135619047D01*
X164185771Y-135619047D02*
X164185771Y-135380952D01*
X164185771Y-135380952D02*
X164233390Y-135285714D01*
X164233390Y-135285714D02*
X164281009Y-135238095D01*
X164281009Y-135238095D02*
X164376247Y-135190476D01*
X164376247Y-135190476D02*
X164614342Y-135190476D01*
X164614342Y-135190476D02*
X164709580Y-135238095D01*
X164709580Y-135238095D02*
X164757200Y-135285714D01*
X164757200Y-135285714D02*
X164804819Y-135380952D01*
X164804819Y-135380952D02*
X164804819Y-135619047D01*
X164804819Y-135619047D02*
X164757200Y-135714285D01*
X164757200Y-135714285D02*
X164709580Y-135761904D01*
X158034819Y-105544155D02*
X157558628Y-105877488D01*
X158034819Y-106115583D02*
X157034819Y-106115583D01*
X157034819Y-106115583D02*
X157034819Y-105734631D01*
X157034819Y-105734631D02*
X157082438Y-105639393D01*
X157082438Y-105639393D02*
X157130057Y-105591774D01*
X157130057Y-105591774D02*
X157225295Y-105544155D01*
X157225295Y-105544155D02*
X157368152Y-105544155D01*
X157368152Y-105544155D02*
X157463390Y-105591774D01*
X157463390Y-105591774D02*
X157511009Y-105639393D01*
X157511009Y-105639393D02*
X157558628Y-105734631D01*
X157558628Y-105734631D02*
X157558628Y-106115583D01*
X158034819Y-104591774D02*
X158034819Y-105163202D01*
X158034819Y-104877488D02*
X157034819Y-104877488D01*
X157034819Y-104877488D02*
X157177676Y-104972726D01*
X157177676Y-104972726D02*
X157272914Y-105067964D01*
X157272914Y-105067964D02*
X157320533Y-105163202D01*
X158034819Y-104163202D02*
X157034819Y-104163202D01*
X157653866Y-104067964D02*
X158034819Y-103782250D01*
X157368152Y-103782250D02*
X157749104Y-104163202D01*
X140534819Y-102234155D02*
X140058628Y-102567488D01*
X140534819Y-102805583D02*
X139534819Y-102805583D01*
X139534819Y-102805583D02*
X139534819Y-102424631D01*
X139534819Y-102424631D02*
X139582438Y-102329393D01*
X139582438Y-102329393D02*
X139630057Y-102281774D01*
X139630057Y-102281774D02*
X139725295Y-102234155D01*
X139725295Y-102234155D02*
X139868152Y-102234155D01*
X139868152Y-102234155D02*
X139963390Y-102281774D01*
X139963390Y-102281774D02*
X140011009Y-102329393D01*
X140011009Y-102329393D02*
X140058628Y-102424631D01*
X140058628Y-102424631D02*
X140058628Y-102805583D01*
X140534819Y-101281774D02*
X140534819Y-101853202D01*
X140534819Y-101567488D02*
X139534819Y-101567488D01*
X139534819Y-101567488D02*
X139677676Y-101662726D01*
X139677676Y-101662726D02*
X139772914Y-101757964D01*
X139772914Y-101757964D02*
X139820533Y-101853202D01*
X140534819Y-100853202D02*
X139534819Y-100853202D01*
X140153866Y-100757964D02*
X140534819Y-100472250D01*
X139868152Y-100472250D02*
X140249104Y-100853202D01*
X149065952Y-118752092D02*
X148732619Y-118275901D01*
X148494524Y-118752092D02*
X148494524Y-117752092D01*
X148494524Y-117752092D02*
X148875476Y-117752092D01*
X148875476Y-117752092D02*
X148970714Y-117799711D01*
X148970714Y-117799711D02*
X149018333Y-117847330D01*
X149018333Y-117847330D02*
X149065952Y-117942568D01*
X149065952Y-117942568D02*
X149065952Y-118085425D01*
X149065952Y-118085425D02*
X149018333Y-118180663D01*
X149018333Y-118180663D02*
X148970714Y-118228282D01*
X148970714Y-118228282D02*
X148875476Y-118275901D01*
X148875476Y-118275901D02*
X148494524Y-118275901D01*
X149399286Y-117752092D02*
X150018333Y-117752092D01*
X150018333Y-117752092D02*
X149685000Y-118133044D01*
X149685000Y-118133044D02*
X149827857Y-118133044D01*
X149827857Y-118133044D02*
X149923095Y-118180663D01*
X149923095Y-118180663D02*
X149970714Y-118228282D01*
X149970714Y-118228282D02*
X150018333Y-118323520D01*
X150018333Y-118323520D02*
X150018333Y-118561615D01*
X150018333Y-118561615D02*
X149970714Y-118656853D01*
X149970714Y-118656853D02*
X149923095Y-118704473D01*
X149923095Y-118704473D02*
X149827857Y-118752092D01*
X149827857Y-118752092D02*
X149542143Y-118752092D01*
X149542143Y-118752092D02*
X149446905Y-118704473D01*
X149446905Y-118704473D02*
X149399286Y-118656853D01*
X150637381Y-117752092D02*
X150732619Y-117752092D01*
X150732619Y-117752092D02*
X150827857Y-117799711D01*
X150827857Y-117799711D02*
X150875476Y-117847330D01*
X150875476Y-117847330D02*
X150923095Y-117942568D01*
X150923095Y-117942568D02*
X150970714Y-118133044D01*
X150970714Y-118133044D02*
X150970714Y-118371139D01*
X150970714Y-118371139D02*
X150923095Y-118561615D01*
X150923095Y-118561615D02*
X150875476Y-118656853D01*
X150875476Y-118656853D02*
X150827857Y-118704473D01*
X150827857Y-118704473D02*
X150732619Y-118752092D01*
X150732619Y-118752092D02*
X150637381Y-118752092D01*
X150637381Y-118752092D02*
X150542143Y-118704473D01*
X150542143Y-118704473D02*
X150494524Y-118656853D01*
X150494524Y-118656853D02*
X150446905Y-118561615D01*
X150446905Y-118561615D02*
X150399286Y-118371139D01*
X150399286Y-118371139D02*
X150399286Y-118133044D01*
X150399286Y-118133044D02*
X150446905Y-117942568D01*
X150446905Y-117942568D02*
X150494524Y-117847330D01*
X150494524Y-117847330D02*
X150542143Y-117799711D01*
X150542143Y-117799711D02*
X150637381Y-117752092D01*
X151589762Y-117752092D02*
X151685000Y-117752092D01*
X151685000Y-117752092D02*
X151780238Y-117799711D01*
X151780238Y-117799711D02*
X151827857Y-117847330D01*
X151827857Y-117847330D02*
X151875476Y-117942568D01*
X151875476Y-117942568D02*
X151923095Y-118133044D01*
X151923095Y-118133044D02*
X151923095Y-118371139D01*
X151923095Y-118371139D02*
X151875476Y-118561615D01*
X151875476Y-118561615D02*
X151827857Y-118656853D01*
X151827857Y-118656853D02*
X151780238Y-118704473D01*
X151780238Y-118704473D02*
X151685000Y-118752092D01*
X151685000Y-118752092D02*
X151589762Y-118752092D01*
X151589762Y-118752092D02*
X151494524Y-118704473D01*
X151494524Y-118704473D02*
X151446905Y-118656853D01*
X151446905Y-118656853D02*
X151399286Y-118561615D01*
X151399286Y-118561615D02*
X151351667Y-118371139D01*
X151351667Y-118371139D02*
X151351667Y-118133044D01*
X151351667Y-118133044D02*
X151399286Y-117942568D01*
X151399286Y-117942568D02*
X151446905Y-117847330D01*
X151446905Y-117847330D02*
X151494524Y-117799711D01*
X151494524Y-117799711D02*
X151589762Y-117752092D01*
X147999524Y-96573001D02*
X147999524Y-95573001D01*
X147999524Y-95573001D02*
X148380476Y-95573001D01*
X148380476Y-95573001D02*
X148475714Y-95620620D01*
X148475714Y-95620620D02*
X148523333Y-95668239D01*
X148523333Y-95668239D02*
X148570952Y-95763477D01*
X148570952Y-95763477D02*
X148570952Y-95906334D01*
X148570952Y-95906334D02*
X148523333Y-96001572D01*
X148523333Y-96001572D02*
X148475714Y-96049191D01*
X148475714Y-96049191D02*
X148380476Y-96096810D01*
X148380476Y-96096810D02*
X147999524Y-96096810D01*
X149570952Y-96477762D02*
X149523333Y-96525382D01*
X149523333Y-96525382D02*
X149380476Y-96573001D01*
X149380476Y-96573001D02*
X149285238Y-96573001D01*
X149285238Y-96573001D02*
X149142381Y-96525382D01*
X149142381Y-96525382D02*
X149047143Y-96430143D01*
X149047143Y-96430143D02*
X148999524Y-96334905D01*
X148999524Y-96334905D02*
X148951905Y-96144429D01*
X148951905Y-96144429D02*
X148951905Y-96001572D01*
X148951905Y-96001572D02*
X148999524Y-95811096D01*
X148999524Y-95811096D02*
X149047143Y-95715858D01*
X149047143Y-95715858D02*
X149142381Y-95620620D01*
X149142381Y-95620620D02*
X149285238Y-95573001D01*
X149285238Y-95573001D02*
X149380476Y-95573001D01*
X149380476Y-95573001D02*
X149523333Y-95620620D01*
X149523333Y-95620620D02*
X149570952Y-95668239D01*
X150142381Y-96001572D02*
X150047143Y-95953953D01*
X150047143Y-95953953D02*
X149999524Y-95906334D01*
X149999524Y-95906334D02*
X149951905Y-95811096D01*
X149951905Y-95811096D02*
X149951905Y-95763477D01*
X149951905Y-95763477D02*
X149999524Y-95668239D01*
X149999524Y-95668239D02*
X150047143Y-95620620D01*
X150047143Y-95620620D02*
X150142381Y-95573001D01*
X150142381Y-95573001D02*
X150332857Y-95573001D01*
X150332857Y-95573001D02*
X150428095Y-95620620D01*
X150428095Y-95620620D02*
X150475714Y-95668239D01*
X150475714Y-95668239D02*
X150523333Y-95763477D01*
X150523333Y-95763477D02*
X150523333Y-95811096D01*
X150523333Y-95811096D02*
X150475714Y-95906334D01*
X150475714Y-95906334D02*
X150428095Y-95953953D01*
X150428095Y-95953953D02*
X150332857Y-96001572D01*
X150332857Y-96001572D02*
X150142381Y-96001572D01*
X150142381Y-96001572D02*
X150047143Y-96049191D01*
X150047143Y-96049191D02*
X149999524Y-96096810D01*
X149999524Y-96096810D02*
X149951905Y-96192048D01*
X149951905Y-96192048D02*
X149951905Y-96382524D01*
X149951905Y-96382524D02*
X149999524Y-96477762D01*
X149999524Y-96477762D02*
X150047143Y-96525382D01*
X150047143Y-96525382D02*
X150142381Y-96573001D01*
X150142381Y-96573001D02*
X150332857Y-96573001D01*
X150332857Y-96573001D02*
X150428095Y-96525382D01*
X150428095Y-96525382D02*
X150475714Y-96477762D01*
X150475714Y-96477762D02*
X150523333Y-96382524D01*
X150523333Y-96382524D02*
X150523333Y-96192048D01*
X150523333Y-96192048D02*
X150475714Y-96096810D01*
X150475714Y-96096810D02*
X150428095Y-96049191D01*
X150428095Y-96049191D02*
X150332857Y-96001572D01*
X151475714Y-96573001D02*
X150904286Y-96573001D01*
X151190000Y-96573001D02*
X151190000Y-95573001D01*
X151190000Y-95573001D02*
X151094762Y-95715858D01*
X151094762Y-95715858D02*
X150999524Y-95811096D01*
X150999524Y-95811096D02*
X150904286Y-95858715D01*
X151809048Y-95573001D02*
X152475714Y-95573001D01*
X152475714Y-95573001D02*
X152047143Y-96573001D01*
X156786190Y-164734819D02*
X157119523Y-165734819D01*
X157119523Y-165734819D02*
X157452856Y-164734819D01*
X157929047Y-165734819D02*
X157833809Y-165687200D01*
X157833809Y-165687200D02*
X157786190Y-165639580D01*
X157786190Y-165639580D02*
X157738571Y-165544342D01*
X157738571Y-165544342D02*
X157738571Y-165258628D01*
X157738571Y-165258628D02*
X157786190Y-165163390D01*
X157786190Y-165163390D02*
X157833809Y-165115771D01*
X157833809Y-165115771D02*
X157929047Y-165068152D01*
X157929047Y-165068152D02*
X158071904Y-165068152D01*
X158071904Y-165068152D02*
X158167142Y-165115771D01*
X158167142Y-165115771D02*
X158214761Y-165163390D01*
X158214761Y-165163390D02*
X158262380Y-165258628D01*
X158262380Y-165258628D02*
X158262380Y-165544342D01*
X158262380Y-165544342D02*
X158214761Y-165639580D01*
X158214761Y-165639580D02*
X158167142Y-165687200D01*
X158167142Y-165687200D02*
X158071904Y-165734819D01*
X158071904Y-165734819D02*
X157929047Y-165734819D01*
X159119523Y-165068152D02*
X159119523Y-165734819D01*
X158690952Y-165068152D02*
X158690952Y-165591961D01*
X158690952Y-165591961D02*
X158738571Y-165687200D01*
X158738571Y-165687200D02*
X158833809Y-165734819D01*
X158833809Y-165734819D02*
X158976666Y-165734819D01*
X158976666Y-165734819D02*
X159071904Y-165687200D01*
X159071904Y-165687200D02*
X159119523Y-165639580D01*
X159452857Y-165068152D02*
X159833809Y-165068152D01*
X159595714Y-164734819D02*
X159595714Y-165591961D01*
X159595714Y-165591961D02*
X159643333Y-165687200D01*
X159643333Y-165687200D02*
X159738571Y-165734819D01*
X159738571Y-165734819D02*
X159833809Y-165734819D01*
X149065952Y-105089364D02*
X148732619Y-104613173D01*
X148494524Y-105089364D02*
X148494524Y-104089364D01*
X148494524Y-104089364D02*
X148875476Y-104089364D01*
X148875476Y-104089364D02*
X148970714Y-104136983D01*
X148970714Y-104136983D02*
X149018333Y-104184602D01*
X149018333Y-104184602D02*
X149065952Y-104279840D01*
X149065952Y-104279840D02*
X149065952Y-104422697D01*
X149065952Y-104422697D02*
X149018333Y-104517935D01*
X149018333Y-104517935D02*
X148970714Y-104565554D01*
X148970714Y-104565554D02*
X148875476Y-104613173D01*
X148875476Y-104613173D02*
X148494524Y-104613173D01*
X149399286Y-104089364D02*
X150018333Y-104089364D01*
X150018333Y-104089364D02*
X149685000Y-104470316D01*
X149685000Y-104470316D02*
X149827857Y-104470316D01*
X149827857Y-104470316D02*
X149923095Y-104517935D01*
X149923095Y-104517935D02*
X149970714Y-104565554D01*
X149970714Y-104565554D02*
X150018333Y-104660792D01*
X150018333Y-104660792D02*
X150018333Y-104898887D01*
X150018333Y-104898887D02*
X149970714Y-104994125D01*
X149970714Y-104994125D02*
X149923095Y-105041745D01*
X149923095Y-105041745D02*
X149827857Y-105089364D01*
X149827857Y-105089364D02*
X149542143Y-105089364D01*
X149542143Y-105089364D02*
X149446905Y-105041745D01*
X149446905Y-105041745D02*
X149399286Y-104994125D01*
X150637381Y-104089364D02*
X150732619Y-104089364D01*
X150732619Y-104089364D02*
X150827857Y-104136983D01*
X150827857Y-104136983D02*
X150875476Y-104184602D01*
X150875476Y-104184602D02*
X150923095Y-104279840D01*
X150923095Y-104279840D02*
X150970714Y-104470316D01*
X150970714Y-104470316D02*
X150970714Y-104708411D01*
X150970714Y-104708411D02*
X150923095Y-104898887D01*
X150923095Y-104898887D02*
X150875476Y-104994125D01*
X150875476Y-104994125D02*
X150827857Y-105041745D01*
X150827857Y-105041745D02*
X150732619Y-105089364D01*
X150732619Y-105089364D02*
X150637381Y-105089364D01*
X150637381Y-105089364D02*
X150542143Y-105041745D01*
X150542143Y-105041745D02*
X150494524Y-104994125D01*
X150494524Y-104994125D02*
X150446905Y-104898887D01*
X150446905Y-104898887D02*
X150399286Y-104708411D01*
X150399286Y-104708411D02*
X150399286Y-104470316D01*
X150399286Y-104470316D02*
X150446905Y-104279840D01*
X150446905Y-104279840D02*
X150494524Y-104184602D01*
X150494524Y-104184602D02*
X150542143Y-104136983D01*
X150542143Y-104136983D02*
X150637381Y-104089364D01*
X151589762Y-104089364D02*
X151685000Y-104089364D01*
X151685000Y-104089364D02*
X151780238Y-104136983D01*
X151780238Y-104136983D02*
X151827857Y-104184602D01*
X151827857Y-104184602D02*
X151875476Y-104279840D01*
X151875476Y-104279840D02*
X151923095Y-104470316D01*
X151923095Y-104470316D02*
X151923095Y-104708411D01*
X151923095Y-104708411D02*
X151875476Y-104898887D01*
X151875476Y-104898887D02*
X151827857Y-104994125D01*
X151827857Y-104994125D02*
X151780238Y-105041745D01*
X151780238Y-105041745D02*
X151685000Y-105089364D01*
X151685000Y-105089364D02*
X151589762Y-105089364D01*
X151589762Y-105089364D02*
X151494524Y-105041745D01*
X151494524Y-105041745D02*
X151446905Y-104994125D01*
X151446905Y-104994125D02*
X151399286Y-104898887D01*
X151399286Y-104898887D02*
X151351667Y-104708411D01*
X151351667Y-104708411D02*
X151351667Y-104470316D01*
X151351667Y-104470316D02*
X151399286Y-104279840D01*
X151399286Y-104279840D02*
X151446905Y-104184602D01*
X151446905Y-104184602D02*
X151494524Y-104136983D01*
X151494524Y-104136983D02*
X151589762Y-104089364D01*
X149065952Y-64101183D02*
X148732619Y-63624992D01*
X148494524Y-64101183D02*
X148494524Y-63101183D01*
X148494524Y-63101183D02*
X148875476Y-63101183D01*
X148875476Y-63101183D02*
X148970714Y-63148802D01*
X148970714Y-63148802D02*
X149018333Y-63196421D01*
X149018333Y-63196421D02*
X149065952Y-63291659D01*
X149065952Y-63291659D02*
X149065952Y-63434516D01*
X149065952Y-63434516D02*
X149018333Y-63529754D01*
X149018333Y-63529754D02*
X148970714Y-63577373D01*
X148970714Y-63577373D02*
X148875476Y-63624992D01*
X148875476Y-63624992D02*
X148494524Y-63624992D01*
X149399286Y-63101183D02*
X150018333Y-63101183D01*
X150018333Y-63101183D02*
X149685000Y-63482135D01*
X149685000Y-63482135D02*
X149827857Y-63482135D01*
X149827857Y-63482135D02*
X149923095Y-63529754D01*
X149923095Y-63529754D02*
X149970714Y-63577373D01*
X149970714Y-63577373D02*
X150018333Y-63672611D01*
X150018333Y-63672611D02*
X150018333Y-63910706D01*
X150018333Y-63910706D02*
X149970714Y-64005944D01*
X149970714Y-64005944D02*
X149923095Y-64053564D01*
X149923095Y-64053564D02*
X149827857Y-64101183D01*
X149827857Y-64101183D02*
X149542143Y-64101183D01*
X149542143Y-64101183D02*
X149446905Y-64053564D01*
X149446905Y-64053564D02*
X149399286Y-64005944D01*
X150637381Y-63101183D02*
X150732619Y-63101183D01*
X150732619Y-63101183D02*
X150827857Y-63148802D01*
X150827857Y-63148802D02*
X150875476Y-63196421D01*
X150875476Y-63196421D02*
X150923095Y-63291659D01*
X150923095Y-63291659D02*
X150970714Y-63482135D01*
X150970714Y-63482135D02*
X150970714Y-63720230D01*
X150970714Y-63720230D02*
X150923095Y-63910706D01*
X150923095Y-63910706D02*
X150875476Y-64005944D01*
X150875476Y-64005944D02*
X150827857Y-64053564D01*
X150827857Y-64053564D02*
X150732619Y-64101183D01*
X150732619Y-64101183D02*
X150637381Y-64101183D01*
X150637381Y-64101183D02*
X150542143Y-64053564D01*
X150542143Y-64053564D02*
X150494524Y-64005944D01*
X150494524Y-64005944D02*
X150446905Y-63910706D01*
X150446905Y-63910706D02*
X150399286Y-63720230D01*
X150399286Y-63720230D02*
X150399286Y-63482135D01*
X150399286Y-63482135D02*
X150446905Y-63291659D01*
X150446905Y-63291659D02*
X150494524Y-63196421D01*
X150494524Y-63196421D02*
X150542143Y-63148802D01*
X150542143Y-63148802D02*
X150637381Y-63101183D01*
X151589762Y-63101183D02*
X151685000Y-63101183D01*
X151685000Y-63101183D02*
X151780238Y-63148802D01*
X151780238Y-63148802D02*
X151827857Y-63196421D01*
X151827857Y-63196421D02*
X151875476Y-63291659D01*
X151875476Y-63291659D02*
X151923095Y-63482135D01*
X151923095Y-63482135D02*
X151923095Y-63720230D01*
X151923095Y-63720230D02*
X151875476Y-63910706D01*
X151875476Y-63910706D02*
X151827857Y-64005944D01*
X151827857Y-64005944D02*
X151780238Y-64053564D01*
X151780238Y-64053564D02*
X151685000Y-64101183D01*
X151685000Y-64101183D02*
X151589762Y-64101183D01*
X151589762Y-64101183D02*
X151494524Y-64053564D01*
X151494524Y-64053564D02*
X151446905Y-64005944D01*
X151446905Y-64005944D02*
X151399286Y-63910706D01*
X151399286Y-63910706D02*
X151351667Y-63720230D01*
X151351667Y-63720230D02*
X151351667Y-63482135D01*
X151351667Y-63482135D02*
X151399286Y-63291659D01*
X151399286Y-63291659D02*
X151446905Y-63196421D01*
X151446905Y-63196421D02*
X151494524Y-63148802D01*
X151494524Y-63148802D02*
X151589762Y-63101183D01*
X125864761Y-68354819D02*
X125388571Y-68354819D01*
X125388571Y-68354819D02*
X125388571Y-67354819D01*
X126102857Y-67354819D02*
X126769523Y-67354819D01*
X126769523Y-67354819D02*
X126340952Y-68354819D01*
X127293333Y-67783390D02*
X127198095Y-67735771D01*
X127198095Y-67735771D02*
X127150476Y-67688152D01*
X127150476Y-67688152D02*
X127102857Y-67592914D01*
X127102857Y-67592914D02*
X127102857Y-67545295D01*
X127102857Y-67545295D02*
X127150476Y-67450057D01*
X127150476Y-67450057D02*
X127198095Y-67402438D01*
X127198095Y-67402438D02*
X127293333Y-67354819D01*
X127293333Y-67354819D02*
X127483809Y-67354819D01*
X127483809Y-67354819D02*
X127579047Y-67402438D01*
X127579047Y-67402438D02*
X127626666Y-67450057D01*
X127626666Y-67450057D02*
X127674285Y-67545295D01*
X127674285Y-67545295D02*
X127674285Y-67592914D01*
X127674285Y-67592914D02*
X127626666Y-67688152D01*
X127626666Y-67688152D02*
X127579047Y-67735771D01*
X127579047Y-67735771D02*
X127483809Y-67783390D01*
X127483809Y-67783390D02*
X127293333Y-67783390D01*
X127293333Y-67783390D02*
X127198095Y-67831009D01*
X127198095Y-67831009D02*
X127150476Y-67878628D01*
X127150476Y-67878628D02*
X127102857Y-67973866D01*
X127102857Y-67973866D02*
X127102857Y-68164342D01*
X127102857Y-68164342D02*
X127150476Y-68259580D01*
X127150476Y-68259580D02*
X127198095Y-68307200D01*
X127198095Y-68307200D02*
X127293333Y-68354819D01*
X127293333Y-68354819D02*
X127483809Y-68354819D01*
X127483809Y-68354819D02*
X127579047Y-68307200D01*
X127579047Y-68307200D02*
X127626666Y-68259580D01*
X127626666Y-68259580D02*
X127674285Y-68164342D01*
X127674285Y-68164342D02*
X127674285Y-67973866D01*
X127674285Y-67973866D02*
X127626666Y-67878628D01*
X127626666Y-67878628D02*
X127579047Y-67831009D01*
X127579047Y-67831009D02*
X127483809Y-67783390D01*
X128293333Y-67354819D02*
X128388571Y-67354819D01*
X128388571Y-67354819D02*
X128483809Y-67402438D01*
X128483809Y-67402438D02*
X128531428Y-67450057D01*
X128531428Y-67450057D02*
X128579047Y-67545295D01*
X128579047Y-67545295D02*
X128626666Y-67735771D01*
X128626666Y-67735771D02*
X128626666Y-67973866D01*
X128626666Y-67973866D02*
X128579047Y-68164342D01*
X128579047Y-68164342D02*
X128531428Y-68259580D01*
X128531428Y-68259580D02*
X128483809Y-68307200D01*
X128483809Y-68307200D02*
X128388571Y-68354819D01*
X128388571Y-68354819D02*
X128293333Y-68354819D01*
X128293333Y-68354819D02*
X128198095Y-68307200D01*
X128198095Y-68307200D02*
X128150476Y-68259580D01*
X128150476Y-68259580D02*
X128102857Y-68164342D01*
X128102857Y-68164342D02*
X128055238Y-67973866D01*
X128055238Y-67973866D02*
X128055238Y-67735771D01*
X128055238Y-67735771D02*
X128102857Y-67545295D01*
X128102857Y-67545295D02*
X128150476Y-67450057D01*
X128150476Y-67450057D02*
X128198095Y-67402438D01*
X128198095Y-67402438D02*
X128293333Y-67354819D01*
X129531428Y-67354819D02*
X129055238Y-67354819D01*
X129055238Y-67354819D02*
X129007619Y-67831009D01*
X129007619Y-67831009D02*
X129055238Y-67783390D01*
X129055238Y-67783390D02*
X129150476Y-67735771D01*
X129150476Y-67735771D02*
X129388571Y-67735771D01*
X129388571Y-67735771D02*
X129483809Y-67783390D01*
X129483809Y-67783390D02*
X129531428Y-67831009D01*
X129531428Y-67831009D02*
X129579047Y-67926247D01*
X129579047Y-67926247D02*
X129579047Y-68164342D01*
X129579047Y-68164342D02*
X129531428Y-68259580D01*
X129531428Y-68259580D02*
X129483809Y-68307200D01*
X129483809Y-68307200D02*
X129388571Y-68354819D01*
X129388571Y-68354819D02*
X129150476Y-68354819D01*
X129150476Y-68354819D02*
X129055238Y-68307200D01*
X129055238Y-68307200D02*
X129007619Y-68259580D01*
X115819580Y-86407428D02*
X115867200Y-86455047D01*
X115867200Y-86455047D02*
X115914819Y-86597904D01*
X115914819Y-86597904D02*
X115914819Y-86693142D01*
X115914819Y-86693142D02*
X115867200Y-86835999D01*
X115867200Y-86835999D02*
X115771961Y-86931237D01*
X115771961Y-86931237D02*
X115676723Y-86978856D01*
X115676723Y-86978856D02*
X115486247Y-87026475D01*
X115486247Y-87026475D02*
X115343390Y-87026475D01*
X115343390Y-87026475D02*
X115152914Y-86978856D01*
X115152914Y-86978856D02*
X115057676Y-86931237D01*
X115057676Y-86931237D02*
X114962438Y-86835999D01*
X114962438Y-86835999D02*
X114914819Y-86693142D01*
X114914819Y-86693142D02*
X114914819Y-86597904D01*
X114914819Y-86597904D02*
X114962438Y-86455047D01*
X114962438Y-86455047D02*
X115010057Y-86407428D01*
X115914819Y-85455047D02*
X115914819Y-86026475D01*
X115914819Y-85740761D02*
X114914819Y-85740761D01*
X114914819Y-85740761D02*
X115057676Y-85835999D01*
X115057676Y-85835999D02*
X115152914Y-85931237D01*
X115152914Y-85931237D02*
X115200533Y-86026475D01*
X114914819Y-84835999D02*
X114914819Y-84740761D01*
X114914819Y-84740761D02*
X114962438Y-84645523D01*
X114962438Y-84645523D02*
X115010057Y-84597904D01*
X115010057Y-84597904D02*
X115105295Y-84550285D01*
X115105295Y-84550285D02*
X115295771Y-84502666D01*
X115295771Y-84502666D02*
X115533866Y-84502666D01*
X115533866Y-84502666D02*
X115724342Y-84550285D01*
X115724342Y-84550285D02*
X115819580Y-84597904D01*
X115819580Y-84597904D02*
X115867200Y-84645523D01*
X115867200Y-84645523D02*
X115914819Y-84740761D01*
X115914819Y-84740761D02*
X115914819Y-84835999D01*
X115914819Y-84835999D02*
X115867200Y-84931237D01*
X115867200Y-84931237D02*
X115819580Y-84978856D01*
X115819580Y-84978856D02*
X115724342Y-85026475D01*
X115724342Y-85026475D02*
X115533866Y-85074094D01*
X115533866Y-85074094D02*
X115295771Y-85074094D01*
X115295771Y-85074094D02*
X115105295Y-85026475D01*
X115105295Y-85026475D02*
X115010057Y-84978856D01*
X115010057Y-84978856D02*
X114962438Y-84931237D01*
X114962438Y-84931237D02*
X114914819Y-84835999D01*
X114914819Y-83883618D02*
X114914819Y-83788380D01*
X114914819Y-83788380D02*
X114962438Y-83693142D01*
X114962438Y-83693142D02*
X115010057Y-83645523D01*
X115010057Y-83645523D02*
X115105295Y-83597904D01*
X115105295Y-83597904D02*
X115295771Y-83550285D01*
X115295771Y-83550285D02*
X115533866Y-83550285D01*
X115533866Y-83550285D02*
X115724342Y-83597904D01*
X115724342Y-83597904D02*
X115819580Y-83645523D01*
X115819580Y-83645523D02*
X115867200Y-83693142D01*
X115867200Y-83693142D02*
X115914819Y-83788380D01*
X115914819Y-83788380D02*
X115914819Y-83883618D01*
X115914819Y-83883618D02*
X115867200Y-83978856D01*
X115867200Y-83978856D02*
X115819580Y-84026475D01*
X115819580Y-84026475D02*
X115724342Y-84074094D01*
X115724342Y-84074094D02*
X115533866Y-84121713D01*
X115533866Y-84121713D02*
X115295771Y-84121713D01*
X115295771Y-84121713D02*
X115105295Y-84074094D01*
X115105295Y-84074094D02*
X115010057Y-84026475D01*
X115010057Y-84026475D02*
X114962438Y-83978856D01*
X114962438Y-83978856D02*
X114914819Y-83883618D01*
X115248152Y-82693142D02*
X115914819Y-82693142D01*
X115248152Y-83121713D02*
X115771961Y-83121713D01*
X115771961Y-83121713D02*
X115867200Y-83074094D01*
X115867200Y-83074094D02*
X115914819Y-82978856D01*
X115914819Y-82978856D02*
X115914819Y-82835999D01*
X115914819Y-82835999D02*
X115867200Y-82740761D01*
X115867200Y-82740761D02*
X115819580Y-82693142D01*
X147999524Y-69247546D02*
X147999524Y-68247546D01*
X147999524Y-68247546D02*
X148380476Y-68247546D01*
X148380476Y-68247546D02*
X148475714Y-68295165D01*
X148475714Y-68295165D02*
X148523333Y-68342784D01*
X148523333Y-68342784D02*
X148570952Y-68438022D01*
X148570952Y-68438022D02*
X148570952Y-68580879D01*
X148570952Y-68580879D02*
X148523333Y-68676117D01*
X148523333Y-68676117D02*
X148475714Y-68723736D01*
X148475714Y-68723736D02*
X148380476Y-68771355D01*
X148380476Y-68771355D02*
X147999524Y-68771355D01*
X149570952Y-69152307D02*
X149523333Y-69199927D01*
X149523333Y-69199927D02*
X149380476Y-69247546D01*
X149380476Y-69247546D02*
X149285238Y-69247546D01*
X149285238Y-69247546D02*
X149142381Y-69199927D01*
X149142381Y-69199927D02*
X149047143Y-69104688D01*
X149047143Y-69104688D02*
X148999524Y-69009450D01*
X148999524Y-69009450D02*
X148951905Y-68818974D01*
X148951905Y-68818974D02*
X148951905Y-68676117D01*
X148951905Y-68676117D02*
X148999524Y-68485641D01*
X148999524Y-68485641D02*
X149047143Y-68390403D01*
X149047143Y-68390403D02*
X149142381Y-68295165D01*
X149142381Y-68295165D02*
X149285238Y-68247546D01*
X149285238Y-68247546D02*
X149380476Y-68247546D01*
X149380476Y-68247546D02*
X149523333Y-68295165D01*
X149523333Y-68295165D02*
X149570952Y-68342784D01*
X150142381Y-68676117D02*
X150047143Y-68628498D01*
X150047143Y-68628498D02*
X149999524Y-68580879D01*
X149999524Y-68580879D02*
X149951905Y-68485641D01*
X149951905Y-68485641D02*
X149951905Y-68438022D01*
X149951905Y-68438022D02*
X149999524Y-68342784D01*
X149999524Y-68342784D02*
X150047143Y-68295165D01*
X150047143Y-68295165D02*
X150142381Y-68247546D01*
X150142381Y-68247546D02*
X150332857Y-68247546D01*
X150332857Y-68247546D02*
X150428095Y-68295165D01*
X150428095Y-68295165D02*
X150475714Y-68342784D01*
X150475714Y-68342784D02*
X150523333Y-68438022D01*
X150523333Y-68438022D02*
X150523333Y-68485641D01*
X150523333Y-68485641D02*
X150475714Y-68580879D01*
X150475714Y-68580879D02*
X150428095Y-68628498D01*
X150428095Y-68628498D02*
X150332857Y-68676117D01*
X150332857Y-68676117D02*
X150142381Y-68676117D01*
X150142381Y-68676117D02*
X150047143Y-68723736D01*
X150047143Y-68723736D02*
X149999524Y-68771355D01*
X149999524Y-68771355D02*
X149951905Y-68866593D01*
X149951905Y-68866593D02*
X149951905Y-69057069D01*
X149951905Y-69057069D02*
X149999524Y-69152307D01*
X149999524Y-69152307D02*
X150047143Y-69199927D01*
X150047143Y-69199927D02*
X150142381Y-69247546D01*
X150142381Y-69247546D02*
X150332857Y-69247546D01*
X150332857Y-69247546D02*
X150428095Y-69199927D01*
X150428095Y-69199927D02*
X150475714Y-69152307D01*
X150475714Y-69152307D02*
X150523333Y-69057069D01*
X150523333Y-69057069D02*
X150523333Y-68866593D01*
X150523333Y-68866593D02*
X150475714Y-68771355D01*
X150475714Y-68771355D02*
X150428095Y-68723736D01*
X150428095Y-68723736D02*
X150332857Y-68676117D01*
X151475714Y-69247546D02*
X150904286Y-69247546D01*
X151190000Y-69247546D02*
X151190000Y-68247546D01*
X151190000Y-68247546D02*
X151094762Y-68390403D01*
X151094762Y-68390403D02*
X150999524Y-68485641D01*
X150999524Y-68485641D02*
X150904286Y-68533260D01*
X151809048Y-68247546D02*
X152475714Y-68247546D01*
X152475714Y-68247546D02*
X152047143Y-69247546D01*
X158034819Y-88355064D02*
X157558628Y-88688397D01*
X158034819Y-88926492D02*
X157034819Y-88926492D01*
X157034819Y-88926492D02*
X157034819Y-88545540D01*
X157034819Y-88545540D02*
X157082438Y-88450302D01*
X157082438Y-88450302D02*
X157130057Y-88402683D01*
X157130057Y-88402683D02*
X157225295Y-88355064D01*
X157225295Y-88355064D02*
X157368152Y-88355064D01*
X157368152Y-88355064D02*
X157463390Y-88402683D01*
X157463390Y-88402683D02*
X157511009Y-88450302D01*
X157511009Y-88450302D02*
X157558628Y-88545540D01*
X157558628Y-88545540D02*
X157558628Y-88926492D01*
X158034819Y-87402683D02*
X158034819Y-87974111D01*
X158034819Y-87688397D02*
X157034819Y-87688397D01*
X157034819Y-87688397D02*
X157177676Y-87783635D01*
X157177676Y-87783635D02*
X157272914Y-87878873D01*
X157272914Y-87878873D02*
X157320533Y-87974111D01*
X158034819Y-86974111D02*
X157034819Y-86974111D01*
X157653866Y-86878873D02*
X158034819Y-86593159D01*
X157368152Y-86593159D02*
X157749104Y-86974111D01*
X147999524Y-123898455D02*
X147999524Y-122898455D01*
X147999524Y-122898455D02*
X148380476Y-122898455D01*
X148380476Y-122898455D02*
X148475714Y-122946074D01*
X148475714Y-122946074D02*
X148523333Y-122993693D01*
X148523333Y-122993693D02*
X148570952Y-123088931D01*
X148570952Y-123088931D02*
X148570952Y-123231788D01*
X148570952Y-123231788D02*
X148523333Y-123327026D01*
X148523333Y-123327026D02*
X148475714Y-123374645D01*
X148475714Y-123374645D02*
X148380476Y-123422264D01*
X148380476Y-123422264D02*
X147999524Y-123422264D01*
X149570952Y-123803216D02*
X149523333Y-123850836D01*
X149523333Y-123850836D02*
X149380476Y-123898455D01*
X149380476Y-123898455D02*
X149285238Y-123898455D01*
X149285238Y-123898455D02*
X149142381Y-123850836D01*
X149142381Y-123850836D02*
X149047143Y-123755597D01*
X149047143Y-123755597D02*
X148999524Y-123660359D01*
X148999524Y-123660359D02*
X148951905Y-123469883D01*
X148951905Y-123469883D02*
X148951905Y-123327026D01*
X148951905Y-123327026D02*
X148999524Y-123136550D01*
X148999524Y-123136550D02*
X149047143Y-123041312D01*
X149047143Y-123041312D02*
X149142381Y-122946074D01*
X149142381Y-122946074D02*
X149285238Y-122898455D01*
X149285238Y-122898455D02*
X149380476Y-122898455D01*
X149380476Y-122898455D02*
X149523333Y-122946074D01*
X149523333Y-122946074D02*
X149570952Y-122993693D01*
X150142381Y-123327026D02*
X150047143Y-123279407D01*
X150047143Y-123279407D02*
X149999524Y-123231788D01*
X149999524Y-123231788D02*
X149951905Y-123136550D01*
X149951905Y-123136550D02*
X149951905Y-123088931D01*
X149951905Y-123088931D02*
X149999524Y-122993693D01*
X149999524Y-122993693D02*
X150047143Y-122946074D01*
X150047143Y-122946074D02*
X150142381Y-122898455D01*
X150142381Y-122898455D02*
X150332857Y-122898455D01*
X150332857Y-122898455D02*
X150428095Y-122946074D01*
X150428095Y-122946074D02*
X150475714Y-122993693D01*
X150475714Y-122993693D02*
X150523333Y-123088931D01*
X150523333Y-123088931D02*
X150523333Y-123136550D01*
X150523333Y-123136550D02*
X150475714Y-123231788D01*
X150475714Y-123231788D02*
X150428095Y-123279407D01*
X150428095Y-123279407D02*
X150332857Y-123327026D01*
X150332857Y-123327026D02*
X150142381Y-123327026D01*
X150142381Y-123327026D02*
X150047143Y-123374645D01*
X150047143Y-123374645D02*
X149999524Y-123422264D01*
X149999524Y-123422264D02*
X149951905Y-123517502D01*
X149951905Y-123517502D02*
X149951905Y-123707978D01*
X149951905Y-123707978D02*
X149999524Y-123803216D01*
X149999524Y-123803216D02*
X150047143Y-123850836D01*
X150047143Y-123850836D02*
X150142381Y-123898455D01*
X150142381Y-123898455D02*
X150332857Y-123898455D01*
X150332857Y-123898455D02*
X150428095Y-123850836D01*
X150428095Y-123850836D02*
X150475714Y-123803216D01*
X150475714Y-123803216D02*
X150523333Y-123707978D01*
X150523333Y-123707978D02*
X150523333Y-123517502D01*
X150523333Y-123517502D02*
X150475714Y-123422264D01*
X150475714Y-123422264D02*
X150428095Y-123374645D01*
X150428095Y-123374645D02*
X150332857Y-123327026D01*
X151475714Y-123898455D02*
X150904286Y-123898455D01*
X151190000Y-123898455D02*
X151190000Y-122898455D01*
X151190000Y-122898455D02*
X151094762Y-123041312D01*
X151094762Y-123041312D02*
X150999524Y-123136550D01*
X150999524Y-123136550D02*
X150904286Y-123184169D01*
X151809048Y-122898455D02*
X152475714Y-122898455D01*
X152475714Y-122898455D02*
X152047143Y-123898455D01*
X147047619Y-148157200D02*
X147190476Y-148204819D01*
X147190476Y-148204819D02*
X147428571Y-148204819D01*
X147428571Y-148204819D02*
X147523809Y-148157200D01*
X147523809Y-148157200D02*
X147571428Y-148109580D01*
X147571428Y-148109580D02*
X147619047Y-148014342D01*
X147619047Y-148014342D02*
X147619047Y-147919104D01*
X147619047Y-147919104D02*
X147571428Y-147823866D01*
X147571428Y-147823866D02*
X147523809Y-147776247D01*
X147523809Y-147776247D02*
X147428571Y-147728628D01*
X147428571Y-147728628D02*
X147238095Y-147681009D01*
X147238095Y-147681009D02*
X147142857Y-147633390D01*
X147142857Y-147633390D02*
X147095238Y-147585771D01*
X147095238Y-147585771D02*
X147047619Y-147490533D01*
X147047619Y-147490533D02*
X147047619Y-147395295D01*
X147047619Y-147395295D02*
X147095238Y-147300057D01*
X147095238Y-147300057D02*
X147142857Y-147252438D01*
X147142857Y-147252438D02*
X147238095Y-147204819D01*
X147238095Y-147204819D02*
X147476190Y-147204819D01*
X147476190Y-147204819D02*
X147619047Y-147252438D01*
X147904762Y-147538152D02*
X148285714Y-147538152D01*
X148047619Y-147204819D02*
X148047619Y-148061961D01*
X148047619Y-148061961D02*
X148095238Y-148157200D01*
X148095238Y-148157200D02*
X148190476Y-148204819D01*
X148190476Y-148204819D02*
X148285714Y-148204819D01*
X148761905Y-148204819D02*
X148666667Y-148157200D01*
X148666667Y-148157200D02*
X148619048Y-148109580D01*
X148619048Y-148109580D02*
X148571429Y-148014342D01*
X148571429Y-148014342D02*
X148571429Y-147728628D01*
X148571429Y-147728628D02*
X148619048Y-147633390D01*
X148619048Y-147633390D02*
X148666667Y-147585771D01*
X148666667Y-147585771D02*
X148761905Y-147538152D01*
X148761905Y-147538152D02*
X148904762Y-147538152D01*
X148904762Y-147538152D02*
X149000000Y-147585771D01*
X149000000Y-147585771D02*
X149047619Y-147633390D01*
X149047619Y-147633390D02*
X149095238Y-147728628D01*
X149095238Y-147728628D02*
X149095238Y-148014342D01*
X149095238Y-148014342D02*
X149047619Y-148109580D01*
X149047619Y-148109580D02*
X149000000Y-148157200D01*
X149000000Y-148157200D02*
X148904762Y-148204819D01*
X148904762Y-148204819D02*
X148761905Y-148204819D01*
X149523810Y-147538152D02*
X149523810Y-148538152D01*
X149523810Y-147585771D02*
X149619048Y-147538152D01*
X149619048Y-147538152D02*
X149809524Y-147538152D01*
X149809524Y-147538152D02*
X149904762Y-147585771D01*
X149904762Y-147585771D02*
X149952381Y-147633390D01*
X149952381Y-147633390D02*
X150000000Y-147728628D01*
X150000000Y-147728628D02*
X150000000Y-148014342D01*
X150000000Y-148014342D02*
X149952381Y-148109580D01*
X149952381Y-148109580D02*
X149904762Y-148157200D01*
X149904762Y-148157200D02*
X149809524Y-148204819D01*
X149809524Y-148204819D02*
X149619048Y-148204819D01*
X149619048Y-148204819D02*
X149523810Y-148157200D01*
X150952381Y-148204819D02*
X150380953Y-148204819D01*
X150666667Y-148204819D02*
X150666667Y-147204819D01*
X150666667Y-147204819D02*
X150571429Y-147347676D01*
X150571429Y-147347676D02*
X150476191Y-147442914D01*
X150476191Y-147442914D02*
X150380953Y-147490533D01*
X134034819Y-61071428D02*
X133558628Y-61404761D01*
X134034819Y-61642856D02*
X133034819Y-61642856D01*
X133034819Y-61642856D02*
X133034819Y-61261904D01*
X133034819Y-61261904D02*
X133082438Y-61166666D01*
X133082438Y-61166666D02*
X133130057Y-61119047D01*
X133130057Y-61119047D02*
X133225295Y-61071428D01*
X133225295Y-61071428D02*
X133368152Y-61071428D01*
X133368152Y-61071428D02*
X133463390Y-61119047D01*
X133463390Y-61119047D02*
X133511009Y-61166666D01*
X133511009Y-61166666D02*
X133558628Y-61261904D01*
X133558628Y-61261904D02*
X133558628Y-61642856D01*
X134034819Y-60119047D02*
X134034819Y-60690475D01*
X134034819Y-60404761D02*
X133034819Y-60404761D01*
X133034819Y-60404761D02*
X133177676Y-60499999D01*
X133177676Y-60499999D02*
X133272914Y-60595237D01*
X133272914Y-60595237D02*
X133320533Y-60690475D01*
X134034819Y-59690475D02*
X133034819Y-59690475D01*
X133653866Y-59595237D02*
X134034819Y-59309523D01*
X133368152Y-59309523D02*
X133749104Y-59690475D01*
X114034819Y-60071428D02*
X113558628Y-60404761D01*
X114034819Y-60642856D02*
X113034819Y-60642856D01*
X113034819Y-60642856D02*
X113034819Y-60261904D01*
X113034819Y-60261904D02*
X113082438Y-60166666D01*
X113082438Y-60166666D02*
X113130057Y-60119047D01*
X113130057Y-60119047D02*
X113225295Y-60071428D01*
X113225295Y-60071428D02*
X113368152Y-60071428D01*
X113368152Y-60071428D02*
X113463390Y-60119047D01*
X113463390Y-60119047D02*
X113511009Y-60166666D01*
X113511009Y-60166666D02*
X113558628Y-60261904D01*
X113558628Y-60261904D02*
X113558628Y-60642856D01*
X114034819Y-59119047D02*
X114034819Y-59690475D01*
X114034819Y-59404761D02*
X113034819Y-59404761D01*
X113034819Y-59404761D02*
X113177676Y-59499999D01*
X113177676Y-59499999D02*
X113272914Y-59595237D01*
X113272914Y-59595237D02*
X113320533Y-59690475D01*
X114034819Y-58690475D02*
X113034819Y-58690475D01*
X113653866Y-58595237D02*
X114034819Y-58309523D01*
X113368152Y-58309523D02*
X113749104Y-58690475D01*
X164900057Y-80595238D02*
X164852438Y-80690476D01*
X164852438Y-80690476D02*
X164757200Y-80785714D01*
X164757200Y-80785714D02*
X164614342Y-80928571D01*
X164614342Y-80928571D02*
X164566723Y-81023809D01*
X164566723Y-81023809D02*
X164566723Y-81119047D01*
X164804819Y-81071428D02*
X164757200Y-81166666D01*
X164757200Y-81166666D02*
X164661961Y-81261904D01*
X164661961Y-81261904D02*
X164471485Y-81309523D01*
X164471485Y-81309523D02*
X164138152Y-81309523D01*
X164138152Y-81309523D02*
X163947676Y-81261904D01*
X163947676Y-81261904D02*
X163852438Y-81166666D01*
X163852438Y-81166666D02*
X163804819Y-81071428D01*
X163804819Y-81071428D02*
X163804819Y-80880952D01*
X163804819Y-80880952D02*
X163852438Y-80785714D01*
X163852438Y-80785714D02*
X163947676Y-80690476D01*
X163947676Y-80690476D02*
X164138152Y-80642857D01*
X164138152Y-80642857D02*
X164471485Y-80642857D01*
X164471485Y-80642857D02*
X164661961Y-80690476D01*
X164661961Y-80690476D02*
X164757200Y-80785714D01*
X164757200Y-80785714D02*
X164804819Y-80880952D01*
X164804819Y-80880952D02*
X164804819Y-81071428D01*
X163900057Y-80261904D02*
X163852438Y-80214285D01*
X163852438Y-80214285D02*
X163804819Y-80119047D01*
X163804819Y-80119047D02*
X163804819Y-79880952D01*
X163804819Y-79880952D02*
X163852438Y-79785714D01*
X163852438Y-79785714D02*
X163900057Y-79738095D01*
X163900057Y-79738095D02*
X163995295Y-79690476D01*
X163995295Y-79690476D02*
X164090533Y-79690476D01*
X164090533Y-79690476D02*
X164233390Y-79738095D01*
X164233390Y-79738095D02*
X164804819Y-80309523D01*
X164804819Y-80309523D02*
X164804819Y-79690476D01*
X123841143Y-92387009D02*
X124174476Y-92387009D01*
X124317333Y-92910819D02*
X123841143Y-92910819D01*
X123841143Y-92910819D02*
X123841143Y-91910819D01*
X123841143Y-91910819D02*
X124317333Y-91910819D01*
X124698286Y-92863200D02*
X124841143Y-92910819D01*
X124841143Y-92910819D02*
X125079238Y-92910819D01*
X125079238Y-92910819D02*
X125174476Y-92863200D01*
X125174476Y-92863200D02*
X125222095Y-92815580D01*
X125222095Y-92815580D02*
X125269714Y-92720342D01*
X125269714Y-92720342D02*
X125269714Y-92625104D01*
X125269714Y-92625104D02*
X125222095Y-92529866D01*
X125222095Y-92529866D02*
X125174476Y-92482247D01*
X125174476Y-92482247D02*
X125079238Y-92434628D01*
X125079238Y-92434628D02*
X124888762Y-92387009D01*
X124888762Y-92387009D02*
X124793524Y-92339390D01*
X124793524Y-92339390D02*
X124745905Y-92291771D01*
X124745905Y-92291771D02*
X124698286Y-92196533D01*
X124698286Y-92196533D02*
X124698286Y-92101295D01*
X124698286Y-92101295D02*
X124745905Y-92006057D01*
X124745905Y-92006057D02*
X124793524Y-91958438D01*
X124793524Y-91958438D02*
X124888762Y-91910819D01*
X124888762Y-91910819D02*
X125126857Y-91910819D01*
X125126857Y-91910819D02*
X125269714Y-91958438D01*
X125698286Y-92910819D02*
X125698286Y-91910819D01*
X125698286Y-91910819D02*
X126079238Y-91910819D01*
X126079238Y-91910819D02*
X126174476Y-91958438D01*
X126174476Y-91958438D02*
X126222095Y-92006057D01*
X126222095Y-92006057D02*
X126269714Y-92101295D01*
X126269714Y-92101295D02*
X126269714Y-92244152D01*
X126269714Y-92244152D02*
X126222095Y-92339390D01*
X126222095Y-92339390D02*
X126174476Y-92387009D01*
X126174476Y-92387009D02*
X126079238Y-92434628D01*
X126079238Y-92434628D02*
X125698286Y-92434628D01*
X126603048Y-91910819D02*
X127222095Y-91910819D01*
X127222095Y-91910819D02*
X126888762Y-92291771D01*
X126888762Y-92291771D02*
X127031619Y-92291771D01*
X127031619Y-92291771D02*
X127126857Y-92339390D01*
X127126857Y-92339390D02*
X127174476Y-92387009D01*
X127174476Y-92387009D02*
X127222095Y-92482247D01*
X127222095Y-92482247D02*
X127222095Y-92720342D01*
X127222095Y-92720342D02*
X127174476Y-92815580D01*
X127174476Y-92815580D02*
X127126857Y-92863200D01*
X127126857Y-92863200D02*
X127031619Y-92910819D01*
X127031619Y-92910819D02*
X126745905Y-92910819D01*
X126745905Y-92910819D02*
X126650667Y-92863200D01*
X126650667Y-92863200D02*
X126603048Y-92815580D01*
X127603048Y-92006057D02*
X127650667Y-91958438D01*
X127650667Y-91958438D02*
X127745905Y-91910819D01*
X127745905Y-91910819D02*
X127984000Y-91910819D01*
X127984000Y-91910819D02*
X128079238Y-91958438D01*
X128079238Y-91958438D02*
X128126857Y-92006057D01*
X128126857Y-92006057D02*
X128174476Y-92101295D01*
X128174476Y-92101295D02*
X128174476Y-92196533D01*
X128174476Y-92196533D02*
X128126857Y-92339390D01*
X128126857Y-92339390D02*
X127555429Y-92910819D01*
X127555429Y-92910819D02*
X128174476Y-92910819D01*
D12*
%TO.C,C100u*%
X131063333Y-79550000D02*
G75*
G02*
X125823333Y-79550000I-2620000J0D01*
G01*
X125823333Y-79550000D02*
G75*
G02*
X131063333Y-79550000I2620000J0D01*
G01*
%TO.C,R1k*%
X142000000Y-71292727D02*
X142000000Y-72242727D01*
X142000000Y-77032727D02*
X142000000Y-76082727D01*
X141080000Y-76082727D02*
X142920000Y-76082727D01*
X142920000Y-72242727D01*
X141080000Y-72242727D01*
X141080000Y-76082727D01*
%TO.C,R300*%
X147315000Y-79229091D02*
X148265000Y-79229091D01*
X153055000Y-79229091D02*
X152105000Y-79229091D01*
X148265000Y-78309091D02*
X152105000Y-78309091D01*
X152105000Y-80149091D01*
X148265000Y-80149091D01*
X148265000Y-78309091D01*
%TO.C,R10k*%
X115500000Y-67940000D02*
X115500000Y-68890000D01*
X115500000Y-73680000D02*
X115500000Y-72730000D01*
X114580000Y-72730000D02*
X116420000Y-72730000D01*
X116420000Y-68890000D01*
X114580000Y-68890000D01*
X114580000Y-72730000D01*
%TO.C,R1k*%
X142000000Y-85292727D02*
X142000000Y-86242727D01*
X142000000Y-91032727D02*
X142000000Y-90082727D01*
X141080000Y-90082727D02*
X142920000Y-90082727D01*
X142920000Y-86242727D01*
X141080000Y-86242727D01*
X141080000Y-90082727D01*
X159500000Y-67724545D02*
X159500000Y-68674545D01*
X159500000Y-73464545D02*
X159500000Y-72514545D01*
X158580000Y-72514545D02*
X160420000Y-72514545D01*
X160420000Y-68674545D01*
X158580000Y-68674545D01*
X158580000Y-72514545D01*
%TO.C,Q6*%
X165190000Y-149390000D02*
X169810000Y-149390000D01*
X165190000Y-152650000D02*
X166570000Y-152650000D01*
X165190000Y-156350000D02*
X166570000Y-156350000D01*
X165190000Y-159610000D02*
X165190000Y-149390000D01*
X166570000Y-159610000D02*
X166570000Y-149390000D01*
X169810000Y-149390000D02*
X169810000Y-159610000D01*
X169810000Y-159610000D02*
X165190000Y-159610000D01*
%TO.C,R1k*%
X159500000Y-119291818D02*
X159500000Y-120241818D01*
X159500000Y-125031818D02*
X159500000Y-124081818D01*
X158580000Y-124081818D02*
X160420000Y-124081818D01*
X160420000Y-120241818D01*
X158580000Y-120241818D01*
X158580000Y-124081818D01*
%TO.C,C100n*%
X124546667Y-79550000D02*
G75*
G02*
X119306667Y-79550000I-2620000J0D01*
G01*
X119306667Y-79550000D02*
G75*
G02*
X124546667Y-79550000I2620000J0D01*
G01*
%TO.C,R1k*%
X142000000Y-57792727D02*
X142000000Y-58742727D01*
X142000000Y-63532727D02*
X142000000Y-62582727D01*
X141080000Y-62582727D02*
X142920000Y-62582727D01*
X142920000Y-58742727D01*
X141080000Y-58742727D01*
X141080000Y-62582727D01*
X159500000Y-153670000D02*
X159500000Y-154620000D01*
X159500000Y-159410000D02*
X159500000Y-158460000D01*
X158580000Y-158460000D02*
X160420000Y-158460000D01*
X160420000Y-154620000D01*
X158580000Y-154620000D01*
X158580000Y-158460000D01*
%TO.C,Forward1*%
X145500000Y-159850000D02*
X145500000Y-161350000D01*
X146750000Y-163850000D02*
X151250000Y-163850000D01*
X151250000Y-157350000D02*
X146750000Y-157350000D01*
X152500000Y-161350000D02*
X152500000Y-159850000D01*
%TO.C,J6*%
X124285000Y-146660000D02*
X124285000Y-145500000D01*
X125095000Y-146660000D02*
X124285000Y-146660000D01*
X125905000Y-144340000D02*
X129650000Y-144340000D01*
X125905000Y-144833292D02*
X125905000Y-144340000D01*
X125905000Y-146660000D02*
X125905000Y-146166708D01*
X125905000Y-146660000D02*
X129650000Y-146660000D01*
X129650000Y-145182077D02*
X129650000Y-144340000D01*
X129650000Y-146660000D02*
X129650000Y-145817923D01*
%TO.C,IRLZ44N*%
X165190000Y-56890000D02*
X169810000Y-56890000D01*
X165190000Y-60150000D02*
X166570000Y-60150000D01*
X165190000Y-63850000D02*
X166570000Y-63850000D01*
X165190000Y-67110000D02*
X165190000Y-56890000D01*
X166570000Y-67110000D02*
X166570000Y-56890000D01*
X169810000Y-56890000D02*
X169810000Y-67110000D01*
X169810000Y-67110000D02*
X165190000Y-67110000D01*
%TO.C,Reverse1*%
X145500000Y-151300000D02*
X145500000Y-152800000D01*
X146750000Y-155300000D02*
X151250000Y-155300000D01*
X151250000Y-148800000D02*
X146750000Y-148800000D01*
X152500000Y-152800000D02*
X152500000Y-151300000D01*
%TO.C,R300*%
X147315000Y-133880000D02*
X148265000Y-133880000D01*
X153055000Y-133880000D02*
X152105000Y-133880000D01*
X148265000Y-132960000D02*
X152105000Y-132960000D01*
X152105000Y-134800000D01*
X148265000Y-134800000D01*
X148265000Y-132960000D01*
%TO.C,PC817*%
X147540000Y-110780909D02*
X147540000Y-115980909D01*
X147540000Y-115980909D02*
X152840000Y-115980909D01*
X149190000Y-110780909D02*
X147540000Y-110780909D01*
X152840000Y-110780909D02*
X151190000Y-110780909D01*
X152840000Y-115980909D02*
X152840000Y-110780909D01*
X151190000Y-110780909D02*
G75*
G02*
X149190000Y-110780909I-1000000J0D01*
G01*
%TO.C,R1k*%
X159500000Y-136480909D02*
X159500000Y-137430909D01*
X159500000Y-142220909D02*
X159500000Y-141270909D01*
X158580000Y-141270909D02*
X160420000Y-141270909D01*
X160420000Y-137430909D01*
X158580000Y-137430909D01*
X158580000Y-141270909D01*
%TO.C,Q3*%
X165190000Y-93890000D02*
X169810000Y-93890000D01*
X165190000Y-97150000D02*
X166570000Y-97150000D01*
X165190000Y-100850000D02*
X166570000Y-100850000D01*
X165190000Y-104110000D02*
X165190000Y-93890000D01*
X166570000Y-104110000D02*
X166570000Y-93890000D01*
X169810000Y-93890000D02*
X169810000Y-104110000D01*
X169810000Y-104110000D02*
X165190000Y-104110000D01*
%TO.C,PC817*%
X147540000Y-56130000D02*
X147540000Y-61330000D01*
X147540000Y-61330000D02*
X152840000Y-61330000D01*
X149190000Y-56130000D02*
X147540000Y-56130000D01*
X152840000Y-56130000D02*
X151190000Y-56130000D01*
X152840000Y-61330000D02*
X152840000Y-56130000D01*
X151190000Y-56130000D02*
G75*
G02*
X149190000Y-56130000I-1000000J0D01*
G01*
%TO.C,R91k*%
X119500000Y-67940000D02*
X119500000Y-68890000D01*
X119500000Y-73680000D02*
X119500000Y-72730000D01*
X120420000Y-68890000D02*
X118580000Y-68890000D01*
X118580000Y-72730000D01*
X120420000Y-72730000D01*
X120420000Y-68890000D01*
%TO.C,PC817*%
X147540000Y-83455455D02*
X147540000Y-88655455D01*
X147540000Y-88655455D02*
X152840000Y-88655455D01*
X149190000Y-83455455D02*
X147540000Y-83455455D01*
X152840000Y-83455455D02*
X151190000Y-83455455D01*
X152840000Y-88655455D02*
X152840000Y-83455455D01*
X151190000Y-83455455D02*
G75*
G02*
X149190000Y-83455455I-1000000J0D01*
G01*
%TO.C,Q4*%
X165190000Y-112390000D02*
X169810000Y-112390000D01*
X165190000Y-115650000D02*
X166570000Y-115650000D01*
X165190000Y-119350000D02*
X166570000Y-119350000D01*
X165190000Y-122610000D02*
X165190000Y-112390000D01*
X166570000Y-122610000D02*
X166570000Y-112390000D01*
X169810000Y-112390000D02*
X169810000Y-122610000D01*
X169810000Y-122610000D02*
X165190000Y-122610000D01*
%TO.C,C100n*%
X137580000Y-79550000D02*
G75*
G02*
X132340000Y-79550000I-2620000J0D01*
G01*
X132340000Y-79550000D02*
G75*
G02*
X137580000Y-79550000I2620000J0D01*
G01*
%TO.C,R1k*%
X119500000Y-56630000D02*
X119500000Y-57580000D01*
X119500000Y-62370000D02*
X119500000Y-61420000D01*
X118580000Y-61420000D02*
X120420000Y-61420000D01*
X120420000Y-57580000D01*
X118580000Y-57580000D01*
X118580000Y-61420000D01*
%TO.C,J5*%
X121840000Y-55930000D02*
X132580000Y-55930000D01*
X121840000Y-59550000D02*
X123080000Y-59550000D01*
X121840000Y-60550000D02*
X123080000Y-60550000D01*
X121840000Y-61850000D02*
X123080000Y-61850000D01*
X121840000Y-63970000D02*
X121840000Y-55930000D01*
X124660000Y-63970000D02*
X121840000Y-63970000D01*
X126840000Y-59550000D02*
X128148000Y-59550000D01*
X126840000Y-60550000D02*
X128148000Y-60550000D01*
X126840000Y-61850000D02*
X129417000Y-61850000D01*
X130503000Y-61850000D02*
X132580000Y-61850000D01*
X131772000Y-59550000D02*
X132580000Y-59550000D01*
X131772000Y-60550000D02*
X132580000Y-60550000D01*
X132580000Y-55930000D02*
X132580000Y-63970000D01*
X132580000Y-63970000D02*
X125260000Y-63970000D01*
X125400000Y-64580000D02*
X124520000Y-64580000D01*
X124960000Y-63970000D01*
X125400000Y-64580000D01*
G36*
X125400000Y-64580000D02*
G01*
X124520000Y-64580000D01*
X124960000Y-63970000D01*
X125400000Y-64580000D01*
G37*
%TO.C,R1k*%
X142000000Y-112292727D02*
X142000000Y-113242727D01*
X142000000Y-118032727D02*
X142000000Y-117082727D01*
X141080000Y-117082727D02*
X142920000Y-117082727D01*
X142920000Y-113242727D01*
X141080000Y-113242727D01*
X141080000Y-117082727D01*
%TO.C,R300*%
X147315000Y-92891818D02*
X148265000Y-92891818D01*
X153055000Y-92891818D02*
X152105000Y-92891818D01*
X148265000Y-91971818D02*
X152105000Y-91971818D01*
X152105000Y-93811818D01*
X148265000Y-93811818D01*
X148265000Y-91971818D01*
%TO.C,R1k*%
X142000000Y-126292727D02*
X142000000Y-127242727D01*
X142000000Y-132032727D02*
X142000000Y-131082727D01*
X141080000Y-131082727D02*
X142920000Y-131082727D01*
X142920000Y-127242727D01*
X141080000Y-127242727D01*
X141080000Y-131082727D01*
%TO.C,Q5*%
X165190000Y-130890000D02*
X169810000Y-130890000D01*
X165190000Y-134150000D02*
X166570000Y-134150000D01*
X165190000Y-137850000D02*
X166570000Y-137850000D01*
X165190000Y-141110000D02*
X165190000Y-130890000D01*
X166570000Y-141110000D02*
X166570000Y-130890000D01*
X169810000Y-130890000D02*
X169810000Y-141110000D01*
X169810000Y-141110000D02*
X165190000Y-141110000D01*
%TO.C,R1k*%
X159500000Y-102102727D02*
X159500000Y-103052727D01*
X159500000Y-107842727D02*
X159500000Y-106892727D01*
X158580000Y-106892727D02*
X160420000Y-106892727D01*
X160420000Y-103052727D01*
X158580000Y-103052727D01*
X158580000Y-106892727D01*
X142000000Y-98792727D02*
X142000000Y-99742727D01*
X142000000Y-104532727D02*
X142000000Y-103582727D01*
X141080000Y-103582727D02*
X142920000Y-103582727D01*
X142920000Y-99742727D01*
X141080000Y-99742727D01*
X141080000Y-103582727D01*
%TO.C,R300*%
X147315000Y-120217273D02*
X148265000Y-120217273D01*
X153055000Y-120217273D02*
X152105000Y-120217273D01*
X148265000Y-119297273D02*
X152105000Y-119297273D01*
X152105000Y-121137273D01*
X148265000Y-121137273D01*
X148265000Y-119297273D01*
%TO.C,PC817*%
X147540000Y-97118182D02*
X147540000Y-102318182D01*
X147540000Y-102318182D02*
X152840000Y-102318182D01*
X149190000Y-97118182D02*
X147540000Y-97118182D01*
X152840000Y-97118182D02*
X151190000Y-97118182D01*
X152840000Y-102318182D02*
X152840000Y-97118182D01*
X151190000Y-97118182D02*
G75*
G02*
X149190000Y-97118182I-1000000J0D01*
G01*
%TO.C,Vout*%
X152860000Y-166280000D02*
X163760000Y-166280000D01*
X152860000Y-168000000D02*
X163760000Y-168000000D01*
X152860000Y-171100000D02*
X163760000Y-171100000D01*
X152860000Y-172100000D02*
X163760000Y-172100000D01*
X152860000Y-173020000D02*
X152860000Y-166280000D01*
X154200000Y-173020000D02*
X152860000Y-173020000D01*
X163760000Y-166280000D02*
X163760000Y-173020000D01*
X163760000Y-173020000D02*
X154800000Y-173020000D01*
X154940000Y-173630000D02*
X154060000Y-173630000D01*
X154500000Y-173020000D01*
X154940000Y-173630000D01*
G36*
X154940000Y-173630000D02*
G01*
X154060000Y-173630000D01*
X154500000Y-173020000D01*
X154940000Y-173630000D01*
G37*
%TO.C,R300*%
X147315000Y-106554545D02*
X148265000Y-106554545D01*
X153055000Y-106554545D02*
X152105000Y-106554545D01*
X148265000Y-105634545D02*
X152105000Y-105634545D01*
X152105000Y-107474545D01*
X148265000Y-107474545D01*
X148265000Y-105634545D01*
X147315000Y-65566364D02*
X148265000Y-65566364D01*
X153055000Y-65566364D02*
X152105000Y-65566364D01*
X148265000Y-64646364D02*
X152105000Y-64646364D01*
X152105000Y-66486364D01*
X148265000Y-66486364D01*
X148265000Y-64646364D01*
%TO.C,L7805*%
X122350000Y-68740000D02*
X132570000Y-68740000D01*
X122350000Y-70120000D02*
X132570000Y-70120000D01*
X122350000Y-73360000D02*
X122350000Y-68740000D01*
X125610000Y-68740000D02*
X125610000Y-70120000D01*
X129310000Y-68740000D02*
X129310000Y-70120000D01*
X132570000Y-68740000D02*
X132570000Y-73360000D01*
X132570000Y-73360000D02*
X122350000Y-73360000D01*
%TO.C,C100u*%
X118030000Y-79550000D02*
G75*
G02*
X112790000Y-79550000I-2620000J0D01*
G01*
X112790000Y-79550000D02*
G75*
G02*
X118030000Y-79550000I2620000J0D01*
G01*
%TO.C,PC817*%
X147540000Y-69792727D02*
X147540000Y-74992727D01*
X147540000Y-74992727D02*
X152840000Y-74992727D01*
X149190000Y-69792727D02*
X147540000Y-69792727D01*
X152840000Y-69792727D02*
X151190000Y-69792727D01*
X152840000Y-74992727D02*
X152840000Y-69792727D01*
X151190000Y-69792727D02*
G75*
G02*
X149190000Y-69792727I-1000000J0D01*
G01*
%TO.C,R1k*%
X159500000Y-84913636D02*
X159500000Y-85863636D01*
X159500000Y-90653636D02*
X159500000Y-89703636D01*
X158580000Y-89703636D02*
X160420000Y-89703636D01*
X160420000Y-85863636D01*
X158580000Y-85863636D01*
X158580000Y-89703636D01*
%TO.C,PC817*%
X147540000Y-124443636D02*
X147540000Y-129643636D01*
X147540000Y-129643636D02*
X152840000Y-129643636D01*
X149190000Y-124443636D02*
X147540000Y-124443636D01*
X152840000Y-124443636D02*
X151190000Y-124443636D01*
X152840000Y-129643636D02*
X152840000Y-124443636D01*
X151190000Y-124443636D02*
G75*
G02*
X149190000Y-124443636I-1000000J0D01*
G01*
%TO.C,Stop1*%
X145500000Y-142750000D02*
X145500000Y-144250000D01*
X146750000Y-146750000D02*
X151250000Y-146750000D01*
X151250000Y-140250000D02*
X146750000Y-140250000D01*
X152500000Y-144250000D02*
X152500000Y-142750000D01*
%TO.C,R1k*%
X135500000Y-57630000D02*
X135500000Y-58580000D01*
X135500000Y-63370000D02*
X135500000Y-62420000D01*
X134580000Y-62420000D02*
X136420000Y-62420000D01*
X136420000Y-58580000D01*
X134580000Y-58580000D01*
X134580000Y-62420000D01*
X115500000Y-56630000D02*
X115500000Y-57580000D01*
X115500000Y-62370000D02*
X115500000Y-61420000D01*
X114580000Y-61420000D02*
X116420000Y-61420000D01*
X116420000Y-57580000D01*
X114580000Y-57580000D01*
X114580000Y-61420000D01*
%TO.C,Q2*%
X165190000Y-75390000D02*
X169810000Y-75390000D01*
X165190000Y-78650000D02*
X166570000Y-78650000D01*
X165190000Y-82350000D02*
X166570000Y-82350000D01*
X165190000Y-85610000D02*
X165190000Y-75390000D01*
X166570000Y-85610000D02*
X166570000Y-75390000D01*
X169810000Y-75390000D02*
X169810000Y-85610000D01*
X169810000Y-85610000D02*
X165190000Y-85610000D01*
%TO.C,ESP32*%
X112370000Y-93260000D02*
X137770000Y-93260000D01*
X112370000Y-132180000D02*
X112370000Y-93260000D01*
X137770000Y-93260000D02*
X137770000Y-132180000D01*
X137770000Y-132180000D02*
X112370000Y-132180000D01*
%TD*%
M02*
