%TF.GenerationSoftware,KiCad,Pcbnew,9.0.7*%
%TF.CreationDate,2026-07-16T00:45:09-04:00*%
%TF.ProjectId,Three_Phase_Inverter,54687265-655f-4506-9861-73655f496e76,rev?*%
%TF.SameCoordinates,Original*%
%TF.FileFunction,Soldermask,Bot*%
%TF.FilePolarity,Negative*%
%FSLAX46Y46*%
G04 Gerber Fmt 4.6, Leading zero omitted, Abs format (unit mm)*
G04 Created by KiCad (PCBNEW 9.0.7) date 2026-07-16 00:45:09*
%MOMM*%
%LPD*%
G01*
G04 APERTURE LIST*
G04 Aperture macros list*
%AMRoundRect*
0 Rectangle with rounded corners*
0 $1 Rounding radius*
0 $2 $3 $4 $5 $6 $7 $8 $9 X,Y pos of 4 corners*
0 Add a 4 corners polygon primitive as box body*
4,1,4,$2,$3,$4,$5,$6,$7,$8,$9,$2,$3,0*
0 Add four circle primitives for the rounded corners*
1,1,$1+$1,$2,$3*
1,1,$1+$1,$4,$5*
1,1,$1+$1,$6,$7*
1,1,$1+$1,$8,$9*
0 Add four rect primitives between the rounded corners*
20,1,$1+$1,$2,$3,$4,$5,0*
20,1,$1+$1,$4,$5,$6,$7,0*
20,1,$1+$1,$6,$7,$8,$9,0*
20,1,$1+$1,$8,$9,$2,$3,0*%
G04 Aperture macros list end*
%ADD10C,1.200000*%
%ADD11C,1.400000*%
%ADD12R,2.000000X1.905000*%
%ADD13O,2.000000X1.905000*%
%ADD14C,2.000000*%
%ADD15R,1.000000X1.000000*%
%ADD16C,1.000000*%
%ADD17RoundRect,0.250000X-0.550000X-0.550000X0.550000X-0.550000X0.550000X0.550000X-0.550000X0.550000X0*%
%ADD18C,1.600000*%
%ADD19RoundRect,0.250001X-1.149999X-1.149999X1.149999X-1.149999X1.149999X1.149999X-1.149999X1.149999X0*%
%ADD20C,2.800000*%
%ADD21RoundRect,0.250000X-0.750000X-0.750000X0.750000X-0.750000X0.750000X0.750000X-0.750000X0.750000X0*%
%ADD22R,1.905000X2.000000*%
%ADD23O,1.905000X2.000000*%
%ADD24R,1.500000X1.500000*%
%ADD25C,1.500000*%
G04 APERTURE END LIST*
D10*
%TO.C,C100u*%
X128443333Y-80550000D03*
X128443333Y-78550000D03*
%TD*%
D11*
%TO.C,R1k*%
X142000000Y-77972727D03*
X142000000Y-70352727D03*
%TD*%
%TO.C,R300*%
X146375000Y-79229091D03*
X153995000Y-79229091D03*
%TD*%
%TO.C,R10k*%
X115500000Y-74620000D03*
X115500000Y-67000000D03*
%TD*%
%TO.C,R1k*%
X142000000Y-91972727D03*
X142000000Y-84352727D03*
%TD*%
%TO.C,R1k*%
X159500000Y-74404545D03*
X159500000Y-66784545D03*
%TD*%
D12*
%TO.C,Q6*%
X168450000Y-157040000D03*
D13*
X168450000Y-154500000D03*
X168450000Y-151960000D03*
%TD*%
D11*
%TO.C,R1k*%
X159500000Y-125971818D03*
X159500000Y-118351818D03*
%TD*%
D10*
%TO.C,C100n*%
X121926667Y-80550000D03*
X121926667Y-78550000D03*
%TD*%
D11*
%TO.C,R1k*%
X142000000Y-64472727D03*
X142000000Y-56852727D03*
%TD*%
%TO.C,R1k*%
X159500000Y-160350000D03*
X159500000Y-152730000D03*
%TD*%
D14*
%TO.C,Forward1*%
X152250000Y-162850000D03*
X145750000Y-162850000D03*
X152250000Y-158350000D03*
X145750000Y-158350000D03*
%TD*%
D15*
%TO.C,J6*%
X125095000Y-145500000D03*
D16*
X126365000Y-145500000D03*
X127635000Y-145500000D03*
X128905000Y-145500000D03*
%TD*%
D12*
%TO.C,IRLZ44N*%
X168450000Y-64540000D03*
D13*
X168450000Y-62000000D03*
X168450000Y-59460000D03*
%TD*%
D14*
%TO.C,Reverse1*%
X152250000Y-154300000D03*
X145750000Y-154300000D03*
X152250000Y-149800000D03*
X145750000Y-149800000D03*
%TD*%
D11*
%TO.C,R300*%
X146375000Y-133880000D03*
X153995000Y-133880000D03*
%TD*%
D17*
%TO.C,PC817*%
X146380000Y-112110909D03*
D18*
X146380000Y-114650909D03*
X154000000Y-114650909D03*
X154000000Y-112110909D03*
%TD*%
D11*
%TO.C,R1k*%
X159500000Y-143160909D03*
X159500000Y-135540909D03*
%TD*%
D12*
%TO.C,Q3*%
X168450000Y-101540000D03*
D13*
X168450000Y-99000000D03*
X168450000Y-96460000D03*
%TD*%
D17*
%TO.C,PC817*%
X146380000Y-57460000D03*
D18*
X146380000Y-60000000D03*
X154000000Y-60000000D03*
X154000000Y-57460000D03*
%TD*%
D11*
%TO.C,R91k*%
X119500000Y-67000000D03*
X119500000Y-74620000D03*
%TD*%
D17*
%TO.C,PC817*%
X146380000Y-84785455D03*
D18*
X146380000Y-87325455D03*
X154000000Y-87325455D03*
X154000000Y-84785455D03*
%TD*%
D12*
%TO.C,Q4*%
X168450000Y-120040000D03*
D13*
X168450000Y-117500000D03*
X168450000Y-114960000D03*
%TD*%
D10*
%TO.C,C100n*%
X134960000Y-80550000D03*
X134960000Y-78550000D03*
%TD*%
D11*
%TO.C,R1k*%
X119500000Y-63310000D03*
X119500000Y-55690000D03*
%TD*%
D19*
%TO.C,J5*%
X124960000Y-60050000D03*
D20*
X129960000Y-60050000D03*
%TD*%
D11*
%TO.C,R1k*%
X142000000Y-118972727D03*
X142000000Y-111352727D03*
%TD*%
%TO.C,R300*%
X146375000Y-92891818D03*
X153995000Y-92891818D03*
%TD*%
%TO.C,R1k*%
X142000000Y-132972727D03*
X142000000Y-125352727D03*
%TD*%
D12*
%TO.C,Q5*%
X168450000Y-138540000D03*
D13*
X168450000Y-136000000D03*
X168450000Y-133460000D03*
%TD*%
D11*
%TO.C,R1k*%
X159500000Y-108782727D03*
X159500000Y-101162727D03*
%TD*%
%TO.C,R1k*%
X142000000Y-105472727D03*
X142000000Y-97852727D03*
%TD*%
%TO.C,R300*%
X146375000Y-120217273D03*
X153995000Y-120217273D03*
%TD*%
D17*
%TO.C,PC817*%
X146380000Y-98448182D03*
D18*
X146380000Y-100988182D03*
X154000000Y-100988182D03*
X154000000Y-98448182D03*
%TD*%
D21*
%TO.C,Vout*%
X154500000Y-169500000D03*
D14*
X157040000Y-169500000D03*
X159580000Y-169500000D03*
X162120000Y-169500000D03*
%TD*%
D11*
%TO.C,R300*%
X146375000Y-106554545D03*
X153995000Y-106554545D03*
%TD*%
%TO.C,R300*%
X146375000Y-65566364D03*
X153995000Y-65566364D03*
%TD*%
D22*
%TO.C,L7805*%
X124920000Y-72000000D03*
D23*
X127460000Y-72000000D03*
X130000000Y-72000000D03*
%TD*%
D10*
%TO.C,C100u*%
X115410000Y-80550000D03*
X115410000Y-78550000D03*
%TD*%
D17*
%TO.C,PC817*%
X146380000Y-71122727D03*
D18*
X146380000Y-73662727D03*
X154000000Y-73662727D03*
X154000000Y-71122727D03*
%TD*%
D11*
%TO.C,R1k*%
X159500000Y-91593636D03*
X159500000Y-83973636D03*
%TD*%
D17*
%TO.C,PC817*%
X146380000Y-125773636D03*
D18*
X146380000Y-128313636D03*
X154000000Y-128313636D03*
X154000000Y-125773636D03*
%TD*%
D14*
%TO.C,Stop1*%
X152250000Y-145750000D03*
X145750000Y-145750000D03*
X152250000Y-141250000D03*
X145750000Y-141250000D03*
%TD*%
D11*
%TO.C,R1k*%
X135500000Y-64310000D03*
X135500000Y-56690000D03*
%TD*%
%TO.C,R1k*%
X115500000Y-63310000D03*
X115500000Y-55690000D03*
%TD*%
D12*
%TO.C,Q2*%
X168450000Y-83040000D03*
D13*
X168450000Y-80500000D03*
X168450000Y-77960000D03*
%TD*%
D24*
%TO.C,ESP32*%
X113640000Y-94940000D03*
D25*
X113640000Y-97480000D03*
X113640000Y-100020000D03*
X113640000Y-102560000D03*
X113640000Y-105100000D03*
X113640000Y-107640000D03*
X113640000Y-110180000D03*
X113640000Y-112720000D03*
X113640000Y-115260000D03*
X113640000Y-117800000D03*
X113640000Y-120340000D03*
X113640000Y-122880000D03*
X113640000Y-125420000D03*
X113640000Y-127960000D03*
X113640000Y-130500000D03*
X136500000Y-130500000D03*
X136500000Y-127960000D03*
X136500000Y-125420000D03*
X136500000Y-122880000D03*
X136500000Y-120340000D03*
X136500000Y-117800000D03*
X136500000Y-115260000D03*
X136500000Y-112720000D03*
X136500000Y-110180000D03*
X136500000Y-107640000D03*
X136500000Y-105100000D03*
X136500000Y-102560000D03*
X136500000Y-100020000D03*
X136500000Y-97480000D03*
X136500000Y-94940000D03*
%TD*%
M02*
