M48
; DRILL file {KiCad 9.0.7} date 2026-08-07T19:31:29-0400
; FORMAT={-:-/ absolute / metric / decimal}
; #@! TF.CreationDate,2026-08-07T19:31:29-04:00
; #@! TF.GenerationSoftware,Kicad,Pcbnew,9.0.7
; #@! TF.FileFunction,Plated,1,2,PTH
FMAT,2
METRIC
; #@! TA.AperFunction,Plated,PTH,ViaDrill
T1C0.300
; #@! TA.AperFunction,Plated,PTH,ComponentDrill
T2C0.600
; #@! TA.AperFunction,Plated,PTH,ComponentDrill
T3C0.650
; #@! TA.AperFunction,Plated,PTH,ComponentDrill
T4C0.800
; #@! TA.AperFunction,Plated,PTH,ComponentDrill
T5C0.900
; #@! TA.AperFunction,Plated,PTH,ComponentDrill
T6C1.100
; #@! TA.AperFunction,Plated,PTH,ComponentDrill
T7C1.200
; #@! TA.AperFunction,Plated,PTH,ComponentDrill
T8C1.300
%
G90
G05
T1
X189.992Y-81.28
T2
X121.904Y-98.973
X121.904Y-100.973
X121.92Y-105.664
X121.92Y-107.664
X127.508Y-111.284
X127.508Y-113.284
X134.025Y-111.284
X134.025Y-113.284
T3
X208.788Y-129.159
X208.788Y-130.429
X208.788Y-131.699
X208.788Y-132.969
T4
X133.341Y-117.602
X133.341Y-122.936
X133.341Y-128.27
X133.341Y-133.604
X133.341Y-138.938
X133.341Y-144.272
X137.16Y-97.536
X137.16Y-107.696
X139.236Y-111.62
X139.797Y-92.824
X143.501Y-117.602
X143.501Y-122.936
X143.501Y-128.27
X143.501Y-133.604
X143.501Y-138.938
X143.501Y-144.272
X144.162Y-96.939
X144.162Y-107.099
X149.396Y-111.62
X149.957Y-92.824
X153.416Y-98.552
X153.416Y-106.172
X153.929Y-111.352
X155.956Y-98.552
X155.956Y-106.172
X156.986Y-92.824
X158.496Y-98.552
X158.496Y-106.172
X161.036Y-98.552
X161.036Y-106.172
X163.576Y-98.552
X163.576Y-106.172
X164.089Y-111.352
X166.116Y-98.552
X166.116Y-106.172
X167.146Y-92.824
X168.622Y-111.352
X168.656Y-98.552
X168.656Y-106.172
X171.196Y-98.552
X171.196Y-106.172
X174.175Y-92.824
X178.782Y-111.352
X179.685Y-97.287
X179.685Y-107.447
X183.314Y-111.352
X184.335Y-92.824
X186.516Y-97.287
X186.516Y-107.447
X191.364Y-92.824
X192.786Y-97.287
X192.786Y-107.447
X193.474Y-111.352
X198.007Y-111.352
X198.495Y-97.287
X198.495Y-107.447
X201.524Y-92.824
X203.708Y-98.552
X203.708Y-106.172
X206.248Y-98.552
X206.248Y-106.172
X208.167Y-111.352
X208.553Y-92.824
X208.788Y-98.552
X208.788Y-106.172
X211.328Y-98.552
X211.328Y-106.172
X212.7Y-111.62
X218.186Y-97.287
X218.186Y-107.447
X218.713Y-92.824
X222.86Y-111.62
X225.742Y-92.824
X225.82Y-97.287
X225.82Y-107.447
X235.902Y-92.824
T5
X153.153Y-120.142
X153.153Y-143.002
X155.693Y-120.142
X155.693Y-143.002
X158.233Y-120.142
X158.233Y-143.002
X160.773Y-120.142
X160.773Y-143.002
X163.313Y-120.142
X163.313Y-143.002
X165.853Y-120.142
X165.853Y-143.002
X168.393Y-120.142
X168.393Y-143.002
X170.933Y-120.142
X170.933Y-143.002
X173.473Y-120.142
X173.473Y-143.002
X176.013Y-120.142
X176.013Y-143.002
X178.553Y-120.142
X178.553Y-143.002
X181.093Y-120.142
X181.093Y-143.002
X183.633Y-120.142
X183.633Y-143.002
X186.173Y-120.142
X186.173Y-143.002
X188.713Y-120.142
X188.713Y-143.002
T6
X121.963Y-118.4
X121.963Y-122.9
X121.963Y-129.025
X121.963Y-133.525
X121.963Y-139.65
X121.963Y-144.15
X128.463Y-118.4
X128.463Y-122.9
X128.463Y-129.025
X128.463Y-133.525
X128.463Y-139.65
X128.463Y-144.15
X131.572Y-99.568
X131.572Y-102.108
X131.572Y-104.648
X136.144Y-84.328
X138.684Y-84.328
X141.224Y-84.328
X154.644Y-84.328
X157.184Y-84.328
X159.724Y-84.328
X173.144Y-84.328
X175.684Y-84.328
X178.224Y-84.328
X191.644Y-84.328
X194.184Y-84.328
X196.724Y-84.328
X210.144Y-84.328
X212.684Y-84.328
X215.224Y-84.328
X228.644Y-84.328
X231.184Y-84.328
X233.724Y-84.328
T7
X191.15Y-74.848
X193.69Y-74.848
X196.23Y-74.848
X198.77Y-74.848
T8
X176.058Y-74.676
X181.058Y-74.676
M30
