%TF.GenerationSoftware,KiCad,Pcbnew,9.0.7*%
%TF.CreationDate,2026-08-07T19:31:15-04:00*%
%TF.ProjectId,Three_Phase_Inverter,54687265-655f-4506-9861-73655f496e76,rev?*%
%TF.SameCoordinates,Original*%
%TF.FileFunction,Soldermask,Bot*%
%TF.FilePolarity,Negative*%
%FSLAX46Y46*%
G04 Gerber Fmt 4.6, Leading zero omitted, Abs format (unit mm)*
G04 Created by KiCad (PCBNEW 9.0.7) date 2026-08-07 19:31:15*
%MOMM*%
%LPD*%
G01*
G04 APERTURE LIST*
G04 Aperture macros list*
%AMRoundRect*
0 Rectangle with rounded corners*
0 $1 Rounding radius*
0 $2 $3 $4 $5 $6 $7 $8 $9 X,Y pos of 4 corners*
0 Add a 4 corners polygon primitive as box body*
4,1,4,$2,$3,$4,$5,$6,$7,$8,$9,$2,$3,0*
0 Add four circle primitives for the rounded corners*
1,1,$1+$1,$2,$3*
1,1,$1+$1,$4,$5*
1,1,$1+$1,$6,$7*
1,1,$1+$1,$8,$9*
0 Add four rect primitives between the rounded corners*
20,1,$1+$1,$2,$3,$4,$5,0*
20,1,$1+$1,$4,$5,$6,$7,0*
20,1,$1+$1,$6,$7,$8,$9,0*
20,1,$1+$1,$8,$9,$2,$3,0*%
G04 Aperture macros list end*
%ADD10C,1.600000*%
%ADD11R,1.600000X1.600000*%
%ADD12C,1.200000*%
%ADD13C,1.905000*%
%ADD14O,1.905000X2.000000*%
%ADD15R,1.905000X2.000000*%
%ADD16C,2.000000*%
%ADD17C,1.000000*%
%ADD18R,1.000000X1.000000*%
%ADD19RoundRect,0.250001X-1.149999X-1.149999X1.149999X-1.149999X1.149999X1.149999X-1.149999X1.149999X0*%
%ADD20C,2.800000*%
%ADD21C,1.500000*%
%ADD22R,1.500000X1.500000*%
%ADD23R,2.000000X2.000000*%
%ADD24R,2.000000X1.905000*%
%ADD25O,2.000000X1.905000*%
G04 APERTURE END LIST*
D10*
%TO.C,R9*%
X183314400Y-111352000D03*
X193474400Y-111352000D03*
%TD*%
%TO.C,U2*%
X153416000Y-98552000D03*
X155956000Y-98552000D03*
X158496000Y-98552000D03*
X161036000Y-98552000D03*
X163576000Y-98552000D03*
X166116000Y-98552000D03*
X168656000Y-98552000D03*
X171196000Y-98552000D03*
D11*
X171196000Y-106172000D03*
D10*
X168656000Y-106172000D03*
D11*
X166116000Y-106172000D03*
D10*
X163576000Y-106172000D03*
D11*
X161036000Y-106172000D03*
D10*
X158496000Y-106172000D03*
D11*
X155956000Y-106172000D03*
D10*
X153416000Y-106172000D03*
%TD*%
%TO.C,R12*%
X179684545Y-97287000D03*
X179684545Y-107447000D03*
%TD*%
%TO.C,R14*%
X186515909Y-97287000D03*
X186515909Y-107447000D03*
%TD*%
%TO.C,R16*%
X192786000Y-97287000D03*
X192786000Y-107447000D03*
%TD*%
%TO.C,R18*%
X198494818Y-107447000D03*
X198494818Y-97287000D03*
%TD*%
%TO.C,U3*%
X203708000Y-106172000D03*
D11*
X206248000Y-106172000D03*
D10*
X208788000Y-106172000D03*
D11*
X211328000Y-106172000D03*
D10*
X211328000Y-98552000D03*
X208788000Y-98552000D03*
X206248000Y-98552000D03*
X203708000Y-98552000D03*
%TD*%
%TO.C,R22*%
X218186000Y-97287000D03*
X218186000Y-107447000D03*
%TD*%
%TO.C,R20*%
X225820273Y-97287000D03*
X225820273Y-107447000D03*
%TD*%
%TO.C,R8*%
X168621600Y-111352000D03*
X178781600Y-111352000D03*
%TD*%
%TO.C,R7*%
X153928800Y-111352000D03*
X164088800Y-111352000D03*
%TD*%
D12*
%TO.C,C3*%
X134024667Y-111284000D03*
X134024667Y-113284000D03*
%TD*%
D10*
%TO.C,R5*%
X144162273Y-107098818D03*
X144162273Y-96938818D03*
%TD*%
%TO.C,R28*%
X143501000Y-138938000D03*
X133341000Y-138938000D03*
%TD*%
%TO.C,R13*%
X149956727Y-92824000D03*
X139796727Y-92824000D03*
%TD*%
D13*
%TO.C,Q6*%
X233724000Y-84328000D03*
D14*
X231184000Y-84328000D03*
D15*
X228644000Y-84328000D03*
%TD*%
D10*
%TO.C,R19*%
X201524000Y-92824000D03*
X191364000Y-92824000D03*
%TD*%
D12*
%TO.C,C2*%
X121904000Y-98972666D03*
X121904000Y-100972666D03*
%TD*%
D10*
%TO.C,R6*%
X149396000Y-111620000D03*
X139236000Y-111620000D03*
%TD*%
%TO.C,R23*%
X235902182Y-92824000D03*
X225742182Y-92824000D03*
%TD*%
%TO.C,R27*%
X133341000Y-117602000D03*
X143501000Y-117602000D03*
%TD*%
D16*
%TO.C,Forward1*%
X121963000Y-118400000D03*
X128463000Y-118400000D03*
X121963000Y-122900000D03*
X128463000Y-122900000D03*
%TD*%
D17*
%TO.C,J6*%
X208788000Y-132969000D03*
X208788000Y-131699000D03*
X208788000Y-130429000D03*
D18*
X208788000Y-129159000D03*
%TD*%
D13*
%TO.C,Q1*%
X141224000Y-84328000D03*
D14*
X138684000Y-84328000D03*
D15*
X136144000Y-84328000D03*
%TD*%
D16*
%TO.C,Reverse1*%
X121963000Y-129025000D03*
X128463000Y-129025000D03*
X121963000Y-133525000D03*
X128463000Y-133525000D03*
%TD*%
D10*
%TO.C,R21*%
X218713091Y-92824000D03*
X208553091Y-92824000D03*
%TD*%
D13*
%TO.C,Q3*%
X178224000Y-84328000D03*
D14*
X175684000Y-84328000D03*
D15*
X173144000Y-84328000D03*
%TD*%
D10*
%TO.C,R4*%
X137160000Y-97536000D03*
X137160000Y-107696000D03*
%TD*%
D13*
%TO.C,Q4*%
X196724000Y-84328000D03*
D14*
X194184000Y-84328000D03*
D15*
X191644000Y-84328000D03*
%TD*%
D12*
%TO.C,C4*%
X127508000Y-111284000D03*
X127508000Y-113284000D03*
%TD*%
D19*
%TO.C,J5*%
X176058000Y-74676000D03*
D20*
X181058000Y-74676000D03*
%TD*%
D10*
%TO.C,R26*%
X133341000Y-128270000D03*
X143501000Y-128270000D03*
%TD*%
%TO.C,R10*%
X208167200Y-111352000D03*
X198007200Y-111352000D03*
%TD*%
%TO.C,R11*%
X222860000Y-111620000D03*
X212700000Y-111620000D03*
%TD*%
D13*
%TO.C,Q5*%
X215224000Y-84328000D03*
D14*
X212684000Y-84328000D03*
D15*
X210144000Y-84328000D03*
%TD*%
D10*
%TO.C,R17*%
X184334909Y-92824000D03*
X174174909Y-92824000D03*
%TD*%
D21*
%TO.C,U8*%
X188713000Y-120142000D03*
D22*
X186173000Y-143002000D03*
X186173000Y-120142000D03*
D21*
X188713000Y-143002000D03*
X153153000Y-143002000D03*
X155693000Y-143002000D03*
X158233000Y-143002000D03*
X160773000Y-143002000D03*
X163313000Y-143002000D03*
X165853000Y-143002000D03*
X168393000Y-143002000D03*
X170933000Y-143002000D03*
X173473000Y-143002000D03*
X176013000Y-143002000D03*
X178553000Y-143002000D03*
X181093000Y-143002000D03*
X183633000Y-143002000D03*
X183633000Y-120142000D03*
X181093000Y-120142000D03*
X176013000Y-120142000D03*
X178553000Y-120142000D03*
X170933000Y-120142000D03*
X163313000Y-120142000D03*
X155693000Y-120142000D03*
X153153000Y-120142000D03*
X158233000Y-120142000D03*
X160773000Y-120142000D03*
X165853000Y-120142000D03*
X168393000Y-120142000D03*
X173473000Y-120142000D03*
%TD*%
D16*
%TO.C,J3*%
X198770000Y-74848000D03*
X196230000Y-74848000D03*
X193690000Y-74848000D03*
D23*
X191150000Y-74848000D03*
%TD*%
D13*
%TO.C,U1*%
X131572000Y-104648000D03*
D24*
X131572000Y-102108000D03*
D25*
X131572000Y-99568000D03*
%TD*%
D12*
%TO.C,C1*%
X121920000Y-105664000D03*
X121920000Y-107664000D03*
%TD*%
D10*
%TO.C,R15*%
X167145818Y-92824000D03*
X156985818Y-92824000D03*
%TD*%
%TO.C,R29*%
X143501000Y-133604000D03*
X133341000Y-133604000D03*
%TD*%
%TO.C,R24*%
X133341000Y-122936000D03*
X143501000Y-122936000D03*
%TD*%
D16*
%TO.C,Stop1*%
X121963000Y-139650000D03*
X128463000Y-139650000D03*
X121963000Y-144150000D03*
X128463000Y-144150000D03*
%TD*%
D10*
%TO.C,R25*%
X143501000Y-144272000D03*
X133341000Y-144272000D03*
%TD*%
D13*
%TO.C,Q2*%
X159724000Y-84328000D03*
D14*
X157184000Y-84328000D03*
D15*
X154644000Y-84328000D03*
%TD*%
M02*
